<svg width="21" height="21" viewBox="0 0 21 21" fill="none" xmlns="http://www.w3.org/2000/svg">
<path d="M10.5 0C4.70101 0 0 4.70101 0 10.5C0 16.299 4.70101 21 10.5 21C16.299 21 21 16.299 21 10.5C21 4.70105 16.299 0 10.5 0ZM14.2283 11.5237L10.7176 15.0344C10.1523 15.5998 9.23561 15.5998 8.67021 15.0344C8.10485 14.469 8.10485 13.5524 8.67021 12.987L11.1572 10.5L8.67021 8.01302C8.10485 7.44766 8.10485 6.531 8.67021 5.96564C9.23557 5.40028 10.1523 5.40028 10.7176 5.96564L14.2283 9.47633C14.7936 10.0417 14.7936 10.9584 14.2283 11.5237Z" fill="#4BA950"/>
</svg>
