<svg width="40" height="40" viewBox="0 0 40 40" fill="none" xmlns="http://www.w3.org/2000/svg">
<path d="M13.3334 23.333C18.8562 23.333 23.3334 18.8559 23.3334 13.333C23.3334 7.81016 18.8562 3.33301 13.3334 3.33301C7.81053 3.33301 3.33337 7.81016 3.33337 13.333C3.33337 18.8559 7.81053 23.333 13.3334 23.333Z" stroke="white" stroke-width="2" stroke-linecap="round" stroke-linejoin="round"/>
<path d="M30.1501 17.2832C31.7256 17.8706 33.1275 18.8458 34.2263 20.1185C35.3251 21.3913 36.0852 22.9206 36.4363 24.565C36.7874 26.2094 36.7182 27.9157 36.2351 29.5263C35.7521 31.1368 34.8706 32.5996 33.6724 33.7792C32.4742 34.9589 30.9979 35.8173 29.38 36.2752C27.7621 36.7331 26.0549 36.7757 24.4162 36.399C22.7775 36.0222 21.2603 35.2384 20.0048 34.1199C18.7493 33.0014 17.7961 31.5844 17.2334 29.9999" stroke="white" stroke-width="2" stroke-linecap="round" stroke-linejoin="round"/>
<path d="M11.6667 10H13.3334V16.6667" stroke="white" stroke-width="2" stroke-linecap="round" stroke-linejoin="round"/>
<path d="M27.85 23.1338L29.0167 24.3171L24.3167 29.0171" stroke="white" stroke-width="2" stroke-linecap="round" stroke-linejoin="round"/>
</svg>
