<svg width="41" height="40" viewBox="0 0 41 40" fill="none" xmlns="http://www.w3.org/2000/svg">
<g clip-path="url(#clip0_53_891)">
<path d="M4.00002 35.6667H20.0334C20.9952 35.6672 21.9456 35.4593 22.8194 35.0574C23.6932 34.6555 24.4695 34.069 25.095 33.3383L33.5984 23.4183C33.7764 23.211 33.9007 22.963 33.9604 22.6963C34.02 22.4295 34.0132 22.1522 33.9404 21.8888C33.8676 21.6253 33.7312 21.3838 33.543 21.1855C33.3549 20.9872 33.1209 20.8382 32.8617 20.7517L29.5817 19.6583C28.7889 19.4007 27.9449 19.3424 27.1243 19.4886C26.3036 19.6348 25.5316 19.9811 24.8767 20.4967L19.5684 24.7417L18.54 22.6833C17.9891 21.5738 17.1385 20.6407 16.0846 19.9897C15.0306 19.3387 13.8155 18.9959 12.5767 19H4.00002C2.16169 19 0.666687 20.495 0.666687 22.3333V32.3333C0.666687 34.1717 2.16169 35.6667 4.00002 35.6667ZM4.00002 22.3333H12.5767C13.8484 22.3333 14.99 23.0383 15.5584 24.175L16.3034 25.6667H9.00002V29H19.0234C19.2798 28.9966 19.5319 28.9339 19.76 28.8167L19.765 28.815L19.7717 28.8117H19.7767L19.78 28.81H19.7867L19.7884 28.8083C19.8034 28.8133 19.7934 28.8067 19.7934 28.8067C19.81 28.8067 19.7967 28.805 19.7967 28.805H19.7984L19.8017 28.8033L19.8067 28.8017L19.81 28.8L19.8134 28.7983L19.8184 28.7967L19.8217 28.795C19.8267 28.795 19.825 28.7933 19.825 28.7933L19.83 28.79L19.8334 28.7883L19.8367 28.7867L19.8417 28.785L19.845 28.7833H19.8467L19.85 28.7817L19.855 28.78L19.8584 28.7783C19.8734 28.7767 19.8634 28.7767 19.8634 28.7767L19.8667 28.775C19.9309 28.7362 19.9922 28.6928 20.05 28.645L26.96 23.1167C27.3967 22.77 27.9984 22.6617 28.5267 22.8383L29.455 23.1483L22.5667 31.1867C22.2498 31.5465 21.8601 31.8348 21.4233 32.0325C20.9866 32.2301 20.5128 32.3327 20.0334 32.3333H4.00002V22.3333ZM24 4.00002H23.9717C23.7 4.00335 22.295 4.06502 20.6667 5.17502C19.0817 4.09502 17.71 4.00835 17.3867 4.00168L17.3367 4.00002H17.33C15.995 4.00002 14.7384 4.52168 13.7984 5.46335C12.855 6.40835 12.3334 7.66335 12.3334 9.00001C12.3334 10.3367 12.855 11.5917 13.7684 12.5067L19.4584 18.4833C19.6149 18.6459 19.8026 18.7751 20.0103 18.8633C20.218 18.9516 20.4414 18.997 20.667 18.9968C20.8927 18.9966 21.116 18.9509 21.3236 18.8624C21.5311 18.7739 21.7187 18.6444 21.875 18.4817L27.535 12.535C28.48 11.5917 29 10.3367 29 9.00001C29 7.66335 28.4784 6.40835 27.5367 5.46502C27.0739 4.99926 26.5233 4.62995 25.9168 4.37847C25.3103 4.127 24.6599 3.99837 24.0034 4.00002H24ZM25.6667 9.00001C25.6667 9.44501 25.4934 9.86335 25.1484 10.2083L20.6667 14.9167L16.155 10.1783C15.84 9.86335 15.6667 9.44501 15.6667 9.00001C15.6667 8.55502 15.84 8.13668 16.1567 7.82001C16.4581 7.51344 16.8685 7.3385 17.2984 7.33335C17.34 7.33502 18.135 7.38668 19.0767 8.14168C19.2117 8.25002 19.3484 8.37335 19.4884 8.51168L20.6667 9.69001L21.845 8.51168C21.985 8.37335 22.1217 8.25002 22.2567 8.14168C23.1384 7.43335 23.8834 7.34502 24.01 7.33502C24.2273 7.33497 24.4423 7.37796 24.6429 7.46149C24.8434 7.54502 25.0254 7.66744 25.1784 7.82168C25.4934 8.13668 25.6667 8.55502 25.6667 9.00001Z" fill="white"/>
</g>
<defs>
<clipPath id="clip0_53_891">
<rect width="40" height="40" fill="white" transform="translate(0.666687)"/>
</clipPath>
</defs>
</svg>
