<svg width="60" height="42" viewBox="0 0 60 42" fill="none" xmlns="http://www.w3.org/2000/svg">
<g clip-path="url(#clip0_85_5312)">
<path d="M54.8573 0.857117H5.143C2.53937 0.857117 0.428711 2.96777 0.428711 5.5714V36.4285C0.428711 39.0322 2.53937 41.1428 5.143 41.1428H54.8573C57.4609 41.1428 59.5716 39.0322 59.5716 36.4285V5.5714C59.5716 2.96777 57.4609 0.857117 54.8573 0.857117Z" fill="white"/>
<path fill-rule="evenodd" clip-rule="evenodd" d="M28.3373 27.4424V22.2635H31.0101C32.1053 22.2635 33.0299 21.8966 33.7835 21.1727L33.9643 20.9893C35.341 19.4907 35.2505 17.1561 33.7835 15.7697C33.0499 15.0357 32.0451 14.6381 31.0101 14.6585H26.7195V27.4424H28.3373ZM28.3374 20.6936V16.2285H31.0509C31.6338 16.2285 32.1866 16.4527 32.5986 16.8605C33.473 17.7168 33.4931 19.144 32.6489 20.0309C32.2368 20.4693 31.6539 20.714 31.0509 20.6936H28.3374ZM41.5107 19.3785C40.8173 18.7363 39.8729 18.4101 38.6771 18.4101C37.1397 18.4101 35.9841 18.9809 35.2204 20.1125L36.6473 21.0198C37.1698 20.245 37.8833 19.8577 38.7876 19.8577C39.3604 19.8577 39.913 20.0718 40.3451 20.4591C40.7671 20.8262 41.0083 21.3562 41.0083 21.917V22.2941C40.3853 21.9476 39.6015 21.7641 38.6369 21.7641C37.5114 21.7641 36.6071 22.0291 35.9339 22.5694C35.2606 23.1097 34.919 23.8233 34.919 24.7306C34.8988 25.5564 35.2505 26.3414 35.8736 26.8714C36.5066 27.4424 37.3105 27.7278 38.255 27.7278C39.3704 27.7278 40.2546 27.2283 40.9279 26.2292H40.9982V27.4424H42.5457V22.0495C42.5457 20.9179 42.204 20.0208 41.5107 19.3785ZM37.1198 25.8316C36.7882 25.5869 36.5872 25.1894 36.5872 24.7612C36.5872 24.2821 36.8083 23.8845 37.2404 23.5684C37.6826 23.2524 38.2354 23.0893 38.8886 23.0893C39.7931 23.0791 40.4966 23.283 40.9991 23.6907C40.9991 24.384 40.7278 24.9855 40.1951 25.4952C39.7127 25.9845 39.0595 26.2598 38.3761 26.2598C37.9238 26.27 37.4816 26.1171 37.1198 25.8316ZM46.0224 31.2856L51.4285 18.6955H49.67L47.168 24.9753H47.1378L44.5755 18.6955H42.8171L46.3641 26.8816L44.3544 31.2856H46.0224Z" fill="#3C4043"/>
<path d="M22.7519 21.1422C22.7519 20.6427 22.7117 20.1431 22.6313 19.6538H15.8085V22.4776H19.7173C19.5565 23.385 19.034 24.2006 18.2703 24.7102V26.5453H20.6015C21.9681 25.271 22.7519 23.385 22.7519 21.1422Z" fill="#4285F4"/>
<path d="M15.8092 28.3191C17.7586 28.3191 19.4058 27.6667 20.6015 26.5453L18.2703 24.7102C17.6171 25.1588 16.7839 25.4137 15.8092 25.4137C13.9201 25.4137 12.3224 24.119 11.7497 22.3859H9.34802V24.2821C10.574 26.7594 13.076 28.3191 15.8092 28.3191Z" fill="#34A853"/>
<path d="M11.7497 22.3859C11.4482 21.4786 11.4481 20.4898 11.7496 19.5723V17.6863H9.34768C8.31249 19.7558 8.31249 22.2025 9.34768 24.2719L11.7497 22.3859Z" fill="#FBBC04"/>
<path d="M15.8092 16.5445C16.8442 16.5241 17.839 16.9217 18.5825 17.6455L20.6525 15.5454C19.3361 14.3017 17.6079 13.6187 15.8092 13.6391C13.076 13.6391 10.5737 15.2091 9.34768 17.6863L11.7497 19.5825C12.3224 17.8392 13.9201 16.5445 15.8092 16.5445Z" fill="#EA4335"/>
</g>
<defs>
<clipPath id="clip0_85_5312">
<rect width="60" height="42" fill="white"/>
</clipPath>
</defs>
</svg>
