<svg width="12" height="13" viewBox="0 0 12 13" fill="none" xmlns="http://www.w3.org/2000/svg">
<path d="M7.5 11.5V7.28936C7.5 7.14977 7.44732 7.01589 7.35355 6.91719C7.25979 6.81848 7.13261 6.76303 7 6.76303H5C4.86739 6.76303 4.74021 6.81848 4.64645 6.91719C4.55268 7.01589 4.5 7.14977 4.5 7.28936V11.5M1.5 5.71037C1.49997 5.55724 1.53167 5.40595 1.59289 5.26705C1.65412 5.12815 1.7434 5.00498 1.8545 4.90614L5.3545 1.74868C5.53499 1.5881 5.76368 1.5 6 1.5C6.23632 1.5 6.46501 1.5881 6.6455 1.74868L10.1455 4.90614C10.2566 5.00498 10.3459 5.12815 10.4071 5.26705C10.4683 5.40595 10.5 5.55724 10.5 5.71037V10.4473C10.5 10.7265 10.3946 10.9943 10.2071 11.1917C10.0196 11.3891 9.76522 11.5 9.5 11.5H2.5C2.23478 11.5 1.98043 11.3891 1.79289 11.1917C1.60536 10.9943 1.5 10.7265 1.5 10.4473V5.71037Z" stroke="#4BA950" stroke-width="1.5" stroke-linecap="round" stroke-linejoin="round"/>
</svg>
