<svg width="41" height="40" viewBox="0 0 41 40" fill="none" xmlns="http://www.w3.org/2000/svg">
<path d="M5.33331 5L35.3333 35M30.3333 10L29.6666 20M29.083 28.7545L28.9985 30.0215C28.8816 31.775 28.8231 32.6518 28.4445 33.3167C28.111 33.902 27.608 34.3725 27.0018 34.6663C26.3133 35 25.4345 35 23.677 35H16.9896C15.2321 35 14.3533 35 13.6648 34.6663C13.0586 34.3725 12.5556 33.902 12.2222 33.3167C11.8434 32.6518 11.785 31.775 11.6681 30.0215L10.3333 10H6.99998M27 10L26.0931 7.27923C25.6395 5.9181 24.3656 5 22.9308 5H17.736C16.904 5 16.1262 5.30865 15.5311 5.83333M19.6888 10H33.6666M23.6666 23.3333V28.3333M17 16.6667V28.3333" stroke="white" stroke-width="2.5" stroke-linecap="round" stroke-linejoin="round"/>
</svg>
