<svg width="61" height="42" viewBox="0 0 61 42" fill="none" xmlns="http://www.w3.org/2000/svg">
<g clip-path="url(#clip0_85_5319)">
<path d="M55.3573 0.857117H5.643C3.03937 0.857117 0.928711 2.96777 0.928711 5.5714V36.4285C0.928711 39.0322 3.03937 41.1428 5.643 41.1428H55.3573C57.9609 41.1428 60.0716 39.0322 60.0716 36.4285V5.5714C60.0716 2.96777 57.9609 0.857117 55.3573 0.857117Z" fill="white"/>
<path fill-rule="evenodd" clip-rule="evenodd" d="M18.7143 28.2999H15.0795L12.3538 17.9012C12.2244 17.4229 11.9497 17 11.5457 16.8007C10.5372 16.2999 9.42604 15.9012 8.21387 15.7002V15.2998H14.0693C14.8775 15.2998 15.4836 15.9012 15.5845 16.5997L16.9988 24.1005L20.6319 15.2998H24.1656L18.7143 28.2999ZM26.186 28.2999H22.7532L25.5799 15.2998H29.0127L26.186 28.2999ZM33.4539 18.9012C33.555 18.2011 34.161 17.8007 34.8682 17.8007C35.9794 17.7002 37.1898 17.9013 38.2 18.4004L38.8061 15.6014C37.7958 15.201 36.6847 15 35.6763 15C32.3445 15 29.9201 16.8007 29.9201 19.2999C29.9201 21.2011 31.6374 22.1993 32.8496 22.8007C34.161 23.4003 34.6662 23.8007 34.5651 24.4004C34.5651 25.2999 33.555 25.7002 32.5465 25.7002C31.3344 25.7002 30.1221 25.4004 29.0127 24.8995L28.4066 27.7002C29.6188 28.1993 30.9303 28.4004 32.1425 28.4004C35.8783 28.4991 38.2 26.7002 38.2 24C38.2 20.5996 33.4539 20.4003 33.4539 18.9012ZM50.2139 28.2999L47.4882 15.2998H44.5605C43.9543 15.2998 43.3482 15.7002 43.1462 16.2999L38.0989 28.2999H41.6328L42.3381 26.4003H46.68L47.0841 28.2999H50.2139ZM45.0655 18.8007L46.074 23.7002H43.2473L45.0655 18.8007Z" fill="#172B85"/>
</g>
<defs>
<clipPath id="clip0_85_5319">
<rect width="61" height="42" fill="white"/>
</clipPath>
</defs>
</svg>
