<svg width="310" height="310" viewBox="0 0 310 310" fill="none" xmlns="http://www.w3.org/2000/svg">
<rect width="310" height="310" fill="white"/>
<path d="M192.511 266.915C143.316 278.385 79.9723 263.402 54.2178 230.243C28.4721 196.934 40.4998 145.46 75.738 110.562C110.985 75.5143 169.451 56.8916 212.54 71.1525C255.637 85.2632 283.357 132.257 279.97 174.733C276.391 217.348 241.53 255.283 192.511 266.915Z" fill="#E5F6D2"/>
<path opacity="0.5" fill-rule="evenodd" clip-rule="evenodd" d="M206.407 267.672C206.407 271.016 182.15 273.728 152.229 273.728C122.308 273.728 98.0526 271.016 98.0526 267.672C98.0526 264.327 122.308 261.614 152.229 261.614C182.15 261.614 206.407 264.327 206.407 267.672Z" fill="#C7DEAD"/>
<path d="M157.689 60.9745C207.02 60.9745 247.01 101.234 247.01 150.895C247.01 200.557 207.02 240.816 157.689 240.816C108.358 240.816 68.3676 200.557 68.3676 150.895C68.3676 101.234 108.358 60.9745 157.689 60.9745Z" fill="white" stroke="#4BA950" stroke-width="6"/>
<path fill-rule="evenodd" clip-rule="evenodd" d="M134.624 237.972C134.451 237.956 134.277 237.934 134.104 237.908C133.094 237.75 131.997 237.485 131.103 236.931C131.157 237.11 131.239 237.307 131.244 237.547C131.224 240.827 131.205 244.107 131.185 247.386C131.278 250.356 131.218 253.324 131.128 256.291C131.054 258.765 130.844 261.235 130.913 263.714C130.933 264.447 130.937 264.472 130.178 264.484C128.505 264.512 126.868 264.76 125.262 265.221C124.171 265.535 123.134 265.989 122.143 266.538C121.698 266.785 121.695 267.078 122.121 267.328C122.483 267.54 122.877 267.725 123.282 267.837C126.142 268.633 128.975 268.315 131.719 267.376C133.258 266.849 134.166 265.626 134.318 263.942C134.356 263.52 134.375 263.095 134.391 262.671C134.469 260.551 134.543 258.432 134.62 256.312C134.768 254.677 134.65 239.141 134.624 237.972Z" fill="#4BA950"/>
<path fill-rule="evenodd" clip-rule="evenodd" d="M183.225 266.438C182.062 265.836 180.86 265.334 179.579 265.029C178.165 264.692 176.734 264.492 175.278 264.483C174.978 264.482 174.573 264.558 174.617 264.049C174.777 262.246 174.502 260.448 174.578 258.648C174.555 258.439 174.519 258.229 174.51 258.019C174.301 251.708 174.313 245.394 174.345 239.079C174.342 239.075 174.342 239.071 174.341 239.068C173.359 239.346 172.377 239.625 171.374 239.818C171.262 240.075 171.247 240.363 171.187 240.638C170.946 241.757 171.034 242.894 170.984 244.023C170.793 248.398 170.557 252.772 170.616 257.155C170.621 257.55 170.936 261.813 171.002 263.261C171.04 264.105 171.252 264.914 171.75 265.652C172.517 266.787 173.582 267.51 174.92 267.774C176.622 268.114 178.343 268.311 180.082 268.251C181.19 268.211 182.247 267.951 183.237 267.438C183.452 267.327 183.716 267.243 183.711 266.936C183.706 266.63 183.44 266.55 183.225 266.438Z" fill="#4BA950"/>
<path fill-rule="evenodd" clip-rule="evenodd" d="M244.026 127.565C243.421 126.682 243.351 125.637 243.141 124.635C244.995 123.387 246.689 121.938 248.418 120.529C255.072 115.113 259.381 108.019 262.95 100.385C263.295 99.6481 263.831 98.8935 263.841 98.1421C263.85 97.4359 263.267 96.7285 262.962 96.0143C262.599 95.1698 262.219 94.331 262.019 93.4264C261.934 93.0407 261.872 92.6557 261.959 92.2695C262.081 91.7208 262.355 91.2849 262.941 91.1268C263.528 90.9675 263.981 91.2086 264.349 91.6364C264.724 92.0723 264.949 92.5925 265.127 93.1344C265.421 94.0327 265.712 94.9311 266.008 95.8438C266.406 95.628 266.403 95.2293 266.532 94.9169C266.812 94.2299 267.038 93.5206 267.304 92.8268C267.468 92.3947 267.677 91.9805 268.036 91.6712C268.46 91.306 268.933 91.0939 269.497 91.3295C270.047 91.5589 270.286 92.0159 270.346 92.5788C270.4 93.0866 270.219 93.5553 270.059 94.0241C269.728 94.9925 269.219 95.8816 268.762 96.855C269.387 96.8494 269.895 96.5791 270.427 96.4309C271.252 96.2015 272.081 96.0397 272.94 96.0986C273.717 96.1513 274.274 96.5481 274.394 97.1166C274.511 97.6535 274.234 98.1923 273.567 98.586C271.733 99.6698 269.718 100.237 267.615 100.324C266.726 100.36 266.419 100.713 266.106 101.423C263.804 106.662 260.931 111.576 257.442 116.112C253.985 120.605 249.542 123.992 244.841 127.069C244.576 127.243 244.298 127.401 244.026 127.565Z" fill="#4BA950"/>
<path fill-rule="evenodd" clip-rule="evenodd" d="M70.6045 131.393L70.5121 131.377L70.4216 131.398C67.683 129.754 65.1906 127.785 62.7168 125.768C59.4662 123.118 56.8207 119.969 54.5459 116.48C52.1651 112.83 49.969 109.074 48.2808 105.047C48.0086 104.397 47.6657 104.203 46.9546 104.166C44.9247 104.061 42.9742 103.559 41.1768 102.564C40.2977 102.077 39.9436 101.545 40.0769 100.937C40.2195 100.286 40.842 99.9471 41.8545 99.9155C42.7944 99.8876 43.6723 100.16 44.5571 100.407C44.9204 100.509 45.2825 100.617 45.7425 100.749C45.2496 99.7071 44.7431 98.8168 44.4107 97.8478C44.2508 97.379 44.071 96.9103 44.1249 96.4019C44.1863 95.839 44.4256 95.3826 44.9762 95.1539C45.5404 94.9201 46.0141 95.1321 46.4369 95.4992C46.8517 95.8594 47.0612 96.3523 47.251 96.8496C47.5411 97.6097 47.8121 98.376 48.0892 99.1411C48.1605 99.3382 48.194 99.5583 48.4668 99.6569C48.76 98.7567 49.0508 97.8583 49.3435 96.9605C49.5214 96.4187 49.7471 95.8985 50.1216 95.4626C50.4905 95.0348 50.9431 94.793 51.5302 94.9524C52.1155 95.1098 52.3963 95.5438 52.511 96.0944C52.6456 96.7423 52.4565 97.3604 52.2531 97.9649C51.8569 99.1398 51.3541 100.273 50.7967 101.378C50.5859 101.798 50.5897 102.139 50.7707 102.565C52.7776 107.271 55.3041 111.679 58.1778 115.906C60.6777 119.584 63.9023 122.542 67.2652 125.375C68.5101 126.422 69.7842 127.438 71.1513 128.331C71.3658 128.568 71.3274 128.838 71.2511 129.109C71.0372 129.871 70.8202 130.631 70.6045 131.393Z" fill="#4BA950"/>
<path fill-rule="evenodd" clip-rule="evenodd" d="M244.293 142.598C242.032 118.106 229.903 95.6152 210.731 80.3654C210.182 80.6137 209.677 80.9359 209.281 81.4416C209.01 81.7863 208.72 81.771 208.35 81.6005C207.546 81.231 206.685 81.0169 205.823 80.8358C205.11 80.6858 204.484 80.3931 203.935 79.9312C203.106 79.2337 202.193 78.7801 201.094 78.6189C200.539 78.537 199.971 78.5324 199.421 78.3873C197.527 77.8894 195.594 77.7196 193.645 77.856C191.515 78.0054 189.453 78.417 187.628 79.6433C187.044 80.037 186.437 80.4323 185.787 80.6878C183.438 81.6103 181.264 82.824 179.211 84.2897C178.291 84.9463 177.331 85.5409 176.533 86.355C175.863 87.0363 175.164 87.6822 174.398 88.2595C172.354 89.7995 171.528 92.1821 172.177 94.6323C172.718 96.6684 174.326 97.5613 176.438 96.6549C177.123 96.3604 177.747 95.9583 178.366 95.546C179.164 95.0146 180.007 94.5515 180.935 94.3072C182.311 93.9451 183.572 93.3196 184.871 92.766C186.938 91.8874 189.024 91.0007 191.378 91.4291C192.767 91.6808 194.149 91.9622 195.467 92.4681C196.207 92.7514 196.264 92.8909 196.103 93.6833C196.031 94.0342 196.011 94.3813 195.989 94.734C195.938 95.5642 195.733 95.8168 194.936 95.8875C194.53 95.9234 194.167 96.026 193.853 96.2616C193.548 96.4898 193.222 96.5481 192.857 96.5432C192.434 96.5376 192.021 96.6013 191.599 96.6776C189.556 97.0521 187.508 97.4372 185.415 97.3715C184.574 97.3454 183.845 97.6399 183.355 98.2778C182.499 99.3957 181.355 100.16 180.26 100.989C179.619 101.475 179.199 102.09 178.886 102.826C178.496 103.744 178.54 104.69 178.539 105.643C178.537 106.806 178.693 107.982 178.338 109.122C177.962 110.319 177.986 111.508 178.065 112.766C178.224 115.3 179.388 117.112 181.451 118.421C182.057 118.805 182.294 119.177 182.026 119.886C181.896 120.231 181.908 120.664 181.967 121.04C182.147 122.182 181.334 122.934 180.008 122.614C179.515 122.496 179.029 122.501 178.538 122.462C176.978 122.341 175.434 122.596 173.889 122.715C172.968 122.786 172.276 123.304 171.946 124.275C171.566 125.393 171.386 126.537 171.355 127.699C171.313 129.291 171.356 130.884 171.362 132.477C171.778 132.842 172.291 132.742 172.777 132.774C174.652 132.901 176.511 132.61 178.378 132.533C181.3 132.411 184.221 132.168 187.143 132.025C189.208 131.923 191.28 131.431 193.361 131.928C193.504 131.943 193.644 131.935 193.786 131.929C195.468 131.85 195.86 132.16 196.088 133.816C196.201 134.623 196.314 135.429 196.551 136.21C197.187 138.308 197.966 138.938 200.147 138.871C201.272 138.835 202.121 139.162 202.843 140.014C203.802 141.146 205.076 141.711 206.538 141.898C208.081 142.094 209.618 142.314 211.183 142.301C212.443 142.292 212.794 142.615 213.032 143.864C213.204 144.776 213.112 145.7 213.122 146.619C213.179 151.775 214.827 156.491 217.203 160.976C218.176 162.81 220.148 163.351 222.06 162.514C223.837 161.736 225.034 160.386 225.791 158.63C226.226 157.623 226.617 156.595 227.072 155.597C227.878 153.831 228.5 151.916 229.78 150.451C231.119 148.917 232.321 147.345 233.208 145.507C233.765 144.35 234.686 143.654 236.094 143.766C237.138 143.848 238.15 143.536 239.078 143.109C240.776 142.331 242.538 142.393 244.293 142.598Z" fill="#E5F6D2"/>
<path fill-rule="evenodd" clip-rule="evenodd" d="M225.896 207.62C224.226 207.171 222.601 206.621 221.07 205.79C218.265 204.264 216.901 201.88 216.759 198.743C216.637 196.104 217.443 193.729 218.872 191.546C219.915 189.949 220.955 188.351 222.13 186.841C223.851 184.633 225.94 182.876 228.396 181.544C230.988 180.137 233.739 179.135 236.574 178.363C238.077 177.953 239.538 177.437 240.978 176.851C241.435 176.665 241.88 176.445 242.384 176.408C241.47 179.873 240.197 183.211 238.787 186.496C235.641 193.823 231.575 200.605 226.601 206.84C226.382 207.112 226.207 207.429 225.896 207.62Z" fill="#E5F6D2"/>
<path fill-rule="evenodd" clip-rule="evenodd" d="M126.238 68.3575C126.633 70.3279 127.04 72.2951 127.42 74.2692C127.895 76.7411 128.166 79.2441 127.93 81.752C127.727 83.9021 127.141 85.9822 126.238 87.9594C126.063 88.3444 125.952 88.7698 125.724 89.1201C124.829 90.4946 124.68 92.0031 124.761 93.5921C124.83 94.9394 124.339 96.167 123.659 97.3028C123.204 98.058 122.711 98.8082 122.062 99.4108C121.229 100.183 120.895 101.15 120.75 102.227C120.537 103.803 120.26 105.361 119.7 106.862C119.127 108.398 118.191 109.662 116.934 110.684C115.493 111.855 113.777 112.081 112.015 111.87C110.268 111.663 108.503 111.535 106.797 111.057C106.355 110.933 105.916 110.8 105.479 110.661C103.865 110.149 103.28 110.407 102.532 111.96C101.883 113.307 101.599 114.769 101.191 116.192C100.803 117.548 100.52 118.93 99.7452 120.155C99.0031 121.33 98.0402 122.21 96.7953 122.815C95.6526 123.37 94.4988 123.897 93.464 124.667C92.7975 125.163 92.6549 125.708 92.7547 126.494C92.9556 128.075 93.3214 129.614 93.7474 131.144C94.0896 132.377 94.0257 133.586 93.5948 134.786C93.1174 136.115 92.6884 137.464 92.0417 138.727C91.4899 139.804 90.581 140.325 89.395 140.376C88.2951 140.424 87.2002 140.328 86.1579 139.966C84.691 139.454 83.6184 138.455 82.8887 137.092C82.4888 136.345 82.1354 135.574 81.79 134.797C81.1149 133.28 80.4322 131.757 79.4502 130.401C77.7879 128.103 76.468 125.597 75.0048 123.179C75.4915 121.325 76.2553 119.571 76.9968 117.813C82.0418 105.855 89.3782 95.5036 98.9045 86.7039C102.755 83.1476 106.62 79.5919 110.989 76.6723C115.701 73.5227 120.564 70.618 125.832 68.461C125.959 68.4083 126.103 68.391 126.238 68.3575Z" fill="#E5F6D2"/>
<path fill-rule="evenodd" clip-rule="evenodd" d="M173.906 64.8913C170.315 68.5338 166.029 71.082 161.251 72.808C158.658 73.7449 155.966 73.9885 153.217 73.5731C151.968 73.3846 150.748 73.5248 149.695 74.3574C149.222 74.7307 148.682 75.0041 148.132 75.2496C146.534 75.9607 145.023 75.6662 143.723 74.4982C142.205 73.1317 141.683 71.3479 141.389 69.4222C141.158 67.9082 141.214 66.3917 141.188 64.8745C142.933 64.4139 144.725 64.2173 146.509 64.0009C150.824 63.4789 155.159 63.2414 159.508 63.3481C164.031 63.4591 168.522 63.903 172.985 64.6569C173.296 64.7096 173.599 64.8119 173.906 64.8913Z" fill="#E5F6D2"/>
<path fill-rule="evenodd" clip-rule="evenodd" d="M123.869 232.993C133.59 237.005 143.937 239.259 154.435 239.651C155.198 235.964 156.765 232.675 159.064 229.705C159.398 229.272 159.745 228.799 159.86 228.227C159.936 228.155 160.014 228.082 160.09 228.011C160.196 227.711 160.312 227.416 160.407 227.113C161.032 225.106 161.205 223.105 160.331 221.115C159.714 219.716 158.897 218.436 157.924 217.263C156.684 215.772 155.768 214.178 155.503 212.186C155.303 210.68 155.566 209.224 155.678 207.762C155.861 205.359 155.952 202.97 155.586 200.587C155.372 199.191 155.044 197.814 154.178 196.637C153.964 196.346 153.939 195.983 153.839 195.645C153.385 194.118 153.064 192.557 151.594 191.522C150.744 190.925 150.029 190.096 149.401 189.232C149.301 189.094 149.135 189.005 148.999 188.894C148.502 188.62 148.12 188.988 147.709 189.139C142.861 190.931 138.097 190.9 133.45 188.471C130.682 187.023 128.672 184.76 126.865 182.281C126.607 181.926 126.447 181.431 125.872 181.439C125.771 181.408 125.671 181.363 125.567 181.346C123.691 181.042 121.823 180.643 119.935 180.471C119.112 180.396 118.283 180.341 117.452 180.341C116.622 180.342 115.791 180.398 114.965 180.547C112.39 181.013 110.222 182.289 108.198 183.888C106.131 185.521 104.51 187.483 103.481 189.915C102.736 191.678 102.261 193.522 101.849 195.384C101.482 197.04 101.335 198.723 101.141 200.404C100.924 202.281 100.816 204.149 101.349 205.972C102.631 210.35 105.14 213.904 108.8 216.621C110.054 217.551 111.252 218.503 112.233 219.744C113.594 221.466 115.118 223.037 117.027 224.189C117.629 224.554 118.326 224.754 118.856 225.24C119.247 225.288 119.548 225.548 119.899 225.685C121.436 226.781 122.259 228.358 122.86 230.083C123.198 231.052 123.53 232.024 123.869 232.993Z" fill="#E5F6D2"/>
<path fill-rule="evenodd" clip-rule="evenodd" d="M72.8361 131.335C72.8054 131.335 72.7753 131.356 72.7461 131.397C72.1094 134.506 71.5018 137.62 71.1577 140.776C70.914 143.018 70.6431 145.259 70.6536 147.52H70.6527C70.4766 150.821 70.5094 154.123 70.7345 157.42C70.8033 158.431 70.7623 159.462 71.0487 160.454C71.4033 162.562 71.7362 164.674 72.1349 166.775C72.8504 170.544 73.7117 174.282 74.6479 178.001C74.7006 178.241 74.7376 178.485 74.8114 178.718C75.9801 182.435 77.4217 186.045 79.1063 189.557C79.8999 191.21 80.6568 192.884 81.6656 194.426C81.6526 194.145 81.7012 193.843 81.6156 193.585C81.2436 192.473 81.5737 191.501 82.1596 190.573C82.4802 190.065 82.8371 189.588 83.2667 189.159C84.0659 188.36 84.9317 187.635 85.7625 186.873C88.4483 184.409 90.3446 181.349 92.1308 178.219C93.0732 176.567 93.7254 174.779 94.4304 173.018C94.4199 172.944 94.4082 172.872 94.3977 172.798V172.797C95.0822 170.297 94.3557 168.295 92.3097 166.722C91.6067 166.181 90.8752 165.691 90.1201 165.231C89.5763 164.901 89.0362 164.57 88.5761 164.116C88.2277 163.773 88.059 163.4 88.0503 162.898C88.0323 161.892 88.2435 160.933 88.538 159.988C88.8424 159.009 89.2585 158.061 89.4371 157.051C89.7924 155.04 89.5568 153.217 87.9386 151.706C86.1226 150.009 84.0083 148.831 81.78 147.818C81.3783 147.635 81.0807 147.4 80.7955 147.066C79.5363 145.591 78.6976 143.908 78.051 142.088C77.0435 139.252 75.7641 136.534 74.2656 133.919C73.7919 133.093 73.3729 132.235 72.9296 131.393C72.8977 131.355 72.8667 131.334 72.8361 131.335Z" fill="#E5F6D2"/>
<path fill-rule="evenodd" clip-rule="evenodd" d="M161.259 165.666C160.143 166.112 159.045 166.598 157.845 166.812C152.308 167.795 147.642 166.34 143.975 162.096C143.273 161.284 142.628 160.426 141.957 159.589C140.836 157.74 140.152 155.719 139.512 153.68C139.347 153.156 139.199 152.627 139.248 152.069C139.308 151.401 139.492 151.202 140.172 151.158C142.172 151.028 144.173 150.905 146.176 150.796C147.884 150.703 149.593 150.634 151.302 150.549C151.444 150.542 151.585 150.491 151.726 150.46C154.057 150.488 156.377 150.294 158.701 150.184C161.025 150.075 163.345 149.899 165.668 149.758C166.725 149.693 167.785 149.645 168.843 149.583C169.354 149.553 169.84 149.63 170.303 149.845C170.797 150.344 170.942 150.936 170.765 151.6C169.583 156.064 167.902 160.265 164.342 163.517C163.404 164.375 162.328 165.008 161.259 165.666Z" fill="#4BA950"/>
<path fill-rule="evenodd" clip-rule="evenodd" d="M132.362 140.571C134.75 140.584 136.634 141.276 138.179 142.773C138.62 143.199 138.998 143.683 139.178 144.284C139.338 144.818 139.298 145.321 138.885 145.732C138.466 146.149 137.951 146.166 137.406 146.003C137.092 145.909 136.806 145.764 136.535 145.587C136.142 145.332 135.757 145.065 135.358 144.819C134.494 144.284 133.574 143.941 132.524 143.991C131.67 144.033 130.811 143.983 129.965 144.134C128.362 144.418 126.941 145.072 125.705 146.119C125.171 146.572 124.618 147.008 124.034 147.397C123.422 147.805 122.889 147.806 122.574 147.49C122.237 147.154 122.233 146.714 122.615 146.052C123.197 145.045 123.878 144.102 124.713 143.278C126.297 141.716 128.253 140.928 130.469 140.725C131.173 140.66 131.874 140.529 132.362 140.571Z" fill="#4BA950"/>
<path fill-rule="evenodd" clip-rule="evenodd" d="M176.509 138.3C177.928 138.319 179.321 138.449 180.678 138.938C182.279 139.513 183.589 140.431 184.636 141.733C185.109 142.324 185.567 142.925 185.944 143.579C186.074 143.803 186.196 144.04 186.263 144.287C186.349 144.603 186.318 144.924 186.047 145.166C185.753 145.426 185.419 145.448 185.059 145.304C184.616 145.126 184.242 144.845 183.874 144.556C183.048 143.907 182.275 143.188 181.328 142.694C179.38 141.678 177.287 141.504 175.141 141.725C174.398 141.801 173.748 142.177 173.128 142.577C172.686 142.863 172.244 143.151 171.793 143.425C171.408 143.659 170.984 143.768 170.526 143.731C169.867 143.675 169.464 143.273 169.4 142.617C169.341 142.035 169.563 141.54 169.905 141.09C171.176 139.414 172.935 138.575 175.006 138.309C175.499 138.245 176.008 138.3 176.509 138.3Z" fill="#4BA950"/>
<path d="M157.881 235.174C203.952 235.174 241.368 197.479 241.369 150.896C241.369 104.312 203.952 66.6163 157.881 66.6162C111.811 66.6162 74.394 104.312 74.394 150.896C74.3942 197.479 111.811 235.174 157.881 235.174Z" stroke="white" stroke-width="9"/>
</svg>
