<svg width="750" height="201" viewBox="0 0 750 201" fill="none" xmlns="http://www.w3.org/2000/svg">
<path fill-rule="evenodd" clip-rule="evenodd" d="M85.6934 1.28473C51.3924 6.68673 23.2144 27.5657 9.15444 57.9967C0.877435 75.9117 -2.63456 101.611 2.18944 108.972C5.09044 113.399 10.6554 114.724 15.6024 112.166C19.3794 110.213 20.4254 106.96 21.1044 95.0577C21.4204 89.5237 22.5804 81.4697 23.6834 77.1587C29.7374 53.4867 51.2834 31.6877 76.1934 24.0327C80.9324 22.5757 85.5554 22.1817 98.1934 22.1537C112.557 22.1227 114.909 22.3657 121.193 24.5307C130.462 27.7247 146.685 36.7637 146.691 38.7367C146.692 39.0777 144.668 41.3807 142.193 43.8557C134.522 51.5267 135.99 54.2417 148.783 56.0437C178.431 60.2207 181.828 60.3167 183.095 57.0127C183.793 55.1947 179.107 19.8387 177.666 16.0487C176.14 12.0337 172.77 12.9647 166.741 19.0697L161.358 24.5207L157.775 21.7017C141.066 8.55173 117.542 0.438727 97.0364 0.754727C92.1724 0.829727 87.0684 1.06873 85.6934 1.28473ZM180.76 89.3687C177.917 92.0057 177.769 92.5717 177.165 103.119C176.404 116.393 174.693 124.458 170.826 132.986C150.462 177.898 96.2984 193.28 55.0214 165.873C52.0914 163.928 49.6934 162.076 49.6934 161.759C49.6934 161.442 52.0024 158.844 54.8234 155.987C59.0874 151.669 59.8474 150.367 59.3214 148.272C58.9734 146.886 57.9024 145.504 56.9414 145.201C54.7204 144.5 32.4154 141.692 23.1634 140.949C13.5174 140.174 13.1144 140.735 14.6074 152.858C14.7348 153.892 14.858 154.893 14.9773 155.861C17.9877 180.318 18.4774 184.297 20.3651 185.138C20.7318 185.301 21.1513 185.346 21.6523 185.4C21.7546 185.411 21.8602 185.422 21.9694 185.435C24.0704 185.68 25.8504 184.639 29.9344 180.777L35.1934 175.804L41.6934 180.753C48.0234 185.574 62.6464 193.272 69.6934 195.495C78.0214 198.122 92.6314 200.619 99.6694 200.619C111.094 200.619 125.513 197.256 139.321 191.371C150.712 186.517 161.401 178.792 171.343 168.23C188.482 150.024 197.68 127.369 197.69 103.337C197.695 91.0297 194.947 86.6187 187.275 86.6187C184.787 86.6187 182.837 87.4417 180.76 89.3687Z" fill="white"/>
<path fill-rule="evenodd" clip-rule="evenodd" d="M96.8464 46.9347C96.2654 47.6347 95.6554 51.5627 95.4914 55.6637L95.1934 63.1187L90.4864 63.4217L85.7794 63.7247L85.4864 56.0267C85.2564 49.9937 84.8144 48.0907 83.4434 47.2287C82.1704 46.4287 81.2164 46.4287 79.9434 47.2287C78.5734 48.0897 78.1304 49.9907 77.9014 55.9737L77.6094 63.6187H72.8254C66.4134 63.6187 63.4484 66.6417 62.7154 73.9257L62.1934 79.1187L54.4024 79.4117C47.2604 79.6797 46.5194 79.9067 45.5054 82.1317C43.5874 86.3407 45.7564 87.6187 54.8154 87.6187H62.6934V92.1187V96.6187H55.2644C47.8174 96.6187 44.6934 97.9107 44.6934 100.99C44.6934 103.713 47.2534 104.619 54.9484 104.619H62.8034L62.4984 109.369L62.1934 114.119L54.7384 114.417C45.3434 114.792 42.7394 116.523 46.2644 120.048C47.4114 121.194 49.8454 121.619 55.2644 121.619H62.6934V126.042C62.6934 129.342 63.3514 131.247 65.2824 133.542C67.5264 136.209 68.5264 136.619 72.7824 136.619H77.6934V143.919C77.6934 151.437 78.6304 153.619 81.8584 153.619C84.5324 153.619 85.6934 150.445 85.6934 143.13V136.509L90.4434 136.814L95.1934 137.119L95.4894 145.088C95.7924 153.241 96.5194 154.739 99.7654 153.89C101.343 153.477 101.658 152.206 101.904 145.262L102.193 137.119H107.193H112.193L112.693 145.119C113.162 152.623 113.341 153.14 115.58 153.456C118.917 153.928 119.66 152.19 119.678 143.869L119.693 136.619H125.004C132.535 136.619 136.693 132.327 136.693 124.554C136.693 121.638 136.731 121.619 142.611 121.619C150.383 121.619 151.693 121.027 151.693 117.512V114.619H144.193H136.693V109.619V104.619H143.658C149.512 104.619 150.787 104.312 151.654 102.691C154.023 98.2647 150.5 96.1617 141.73 96.7697L136.692 97.1187V92.3687L136.693 87.6187H143.658C149.599 87.6187 150.78 87.3247 151.693 85.6187C152.453 84.1977 152.453 83.0397 151.693 81.6187C150.78 79.9127 149.599 79.6187 143.658 79.6187H136.693V76.1837C136.693 67.8927 132.717 63.6187 125.004 63.6187H119.693V56.1897C119.693 47.8147 118.104 44.7937 114.665 46.6337C113.108 47.4667 112.725 49.0017 112.485 55.3817L112.193 63.1187H107.193H102.193L101.901 55.3817C101.663 49.0577 101.271 47.4627 99.7564 46.6527C98.4424 45.9497 97.5954 46.0317 96.8464 46.9347ZM70.6934 128.619V100.119V71.6187H99.1934H127.693V100.119V128.619H99.1934H70.6934Z" fill="white"/>
<path fill-rule="evenodd" clip-rule="evenodd" d="M96.8464 46.9347C96.2654 47.6347 95.6554 51.5627 95.4914 55.6637L95.1934 63.1187L90.4864 63.4217L85.7794 63.7247L85.4864 56.0267C85.2564 49.9937 84.8144 48.0907 83.4434 47.2287C82.1704 46.4287 81.2164 46.4287 79.9434 47.2287C78.5734 48.0897 78.1304 49.9907 77.9014 55.9737L77.6094 63.6187H72.8254C66.4134 63.6187 63.4484 66.6417 62.7154 73.9257L62.1934 79.1187L54.4024 79.4117C47.2604 79.6797 46.5194 79.9067 45.5054 82.1317C43.5874 86.3407 45.7564 87.6187 54.8154 87.6187H62.6934V92.1187V96.6187H55.2644C47.8174 96.6187 44.6934 97.9107 44.6934 100.99C44.6934 103.713 47.2534 104.619 54.9484 104.619H62.8034L62.4984 109.369L62.1934 114.119L54.7384 114.417C45.3434 114.792 42.7394 116.523 46.2644 120.048C47.4114 121.194 49.8454 121.619 55.2644 121.619H62.6934V126.042C62.6934 129.342 63.3514 131.247 65.2824 133.542C67.5264 136.209 68.5264 136.619 72.7824 136.619H77.6934V143.919C77.6934 151.437 78.6304 153.619 81.8584 153.619C84.5324 153.619 85.6934 150.445 85.6934 143.13V136.509L90.4434 136.814L95.1934 137.119L95.4894 145.088C95.7924 153.241 96.5194 154.739 99.7654 153.89C101.343 153.477 101.658 152.206 101.904 145.262L102.193 137.119H107.193H112.193L112.693 145.119C113.162 152.623 113.341 153.14 115.58 153.456C118.917 153.928 119.66 152.19 119.678 143.869L119.693 136.619H125.004C132.535 136.619 136.693 132.327 136.693 124.554C136.693 121.638 136.731 121.619 142.611 121.619C150.383 121.619 151.693 121.027 151.693 117.512V114.619H144.193H136.693V109.619V104.619H143.658C149.512 104.619 150.787 104.312 151.654 102.691C154.023 98.2647 150.5 96.1617 141.73 96.7697L136.692 97.1187V92.3687L136.693 87.6187H143.658C149.599 87.6187 150.78 87.3247 151.693 85.6187C152.453 84.1977 152.453 83.0397 151.693 81.6187C150.78 79.9127 149.599 79.6187 143.658 79.6187H136.693V76.1837C136.693 67.8927 132.717 63.6187 125.004 63.6187H119.693V56.1897C119.693 47.8147 118.104 44.7937 114.665 46.6337C113.108 47.4667 112.725 49.0017 112.485 55.3817L112.193 63.1187H107.193H102.193L101.901 55.3817C101.663 49.0577 101.271 47.4627 99.7564 46.6527C98.4424 45.9497 97.5954 46.0317 96.8464 46.9347ZM70.6934 128.619V100.119V71.6187H99.1934H127.693V100.119V128.619H99.1934H70.6934Z" fill="#2E250A"/>
<path d="M85.6064 83.9007C82.4674 86.3107 81.6934 89.5137 81.6934 100.103C81.6934 111.119 82.9334 115.73 86.2384 116.998C87.1284 117.339 93.1704 117.619 99.6644 117.619C116.442 117.619 116.193 117.883 116.193 100.119C116.193 82.2967 116.491 82.6057 99.3324 82.6507C91.3704 82.6717 86.6474 83.1017 85.6064 83.9007Z" fill="#2E250A"/>
<path fill-rule="evenodd" clip-rule="evenodd" d="M256.994 40.8767C252.337 42.3687 246.449 48.4547 245.008 53.2667C244.335 55.5127 243.784 60.1107 243.784 63.4847V69.6187H238.238H232.693L232.988 76.3687L233.284 83.1187L238.534 83.4207L243.784 83.7237V109.171V134.619H251.284H258.784V109.165V83.7097L265.534 83.4147L272.285 83.1187L272.58 76.3687L272.876 69.6187H265.709H258.544L258.988 63.4697C259.377 58.0937 259.834 56.9627 262.624 54.4697C265.002 52.3457 266.832 51.6187 269.8 51.6187H273.785V45.6187V39.6187L267.034 39.7207C263.322 39.7767 258.803 40.2977 256.994 40.8767ZM662.492 42.2447C662.102 42.6337 661.784 63.5767 661.784 88.7857V134.619H669.294H676.805L676.544 88.3687L676.284 42.1187L669.742 41.8277C666.143 41.6677 662.881 41.8557 662.492 42.2447ZM344.285 68.9527C332.474 72.8797 326.417 79.5577 323.907 91.4177C321.841 101.178 322.965 113.967 326.519 121.119C332.003 132.158 344.784 137.725 359.439 135.456C367.201 134.255 370.237 132.916 375.322 128.452C378.844 125.359 380.875 122.247 382.226 117.869C382.903 115.674 382.736 115.619 375.425 115.619C368.616 115.619 367.75 115.848 365.958 118.126C361.51 123.781 352.206 125.393 345.967 121.589C342.334 119.374 338.448 112.008 338.971 108.329C339.283 106.134 339.434 106.117 361.535 105.85L383.785 105.581V99.6207C383.785 92.1977 380.519 81.9657 376.654 77.2777C370.414 69.7067 354.401 65.5887 344.285 68.9527ZM414.285 69.2247C404.029 72.4977 396.825 80.2867 394.732 90.3667C392.907 99.1617 393.873 114.14 396.631 119.817C399.281 125.271 404.979 131.268 409.291 133.139C418.379 137.08 431.533 136.854 439.752 132.616C445.412 129.697 452.785 120.675 452.785 116.669C452.785 116.03 449.866 115.619 445.32 115.619C438.814 115.619 437.714 115.883 436.756 117.673C433.857 123.091 424.071 125.272 417.23 122.026C413.619 120.312 410.133 114.423 409.592 109.119L409.285 106.119L431.683 105.849L454.081 105.58L453.437 96.4907C452.925 89.2857 452.226 86.3627 450.067 82.3957C447.259 77.2357 441.543 71.9787 436.285 69.7187C431.482 67.6547 420.009 67.3967 414.285 69.2247ZM485.337 69.2157C471.077 73.7657 463.651 84.7757 463.485 101.619C463.3 120.399 472.194 132.583 488.304 135.623C498.419 137.531 508.83 134.93 515.182 128.909C519.245 125.058 524.378 115.389 523.292 113.632C522.948 113.075 519.329 112.619 515.251 112.619C508.073 112.619 507.788 112.712 506.331 115.531C503.873 120.283 500.103 122.619 494.899 122.615C485.021 122.607 479.399 115.173 479.399 102.119C479.399 89.1597 485.317 81.1697 494.808 81.3127C500.663 81.4007 504.217 83.6607 506.446 88.7137L508.169 92.6187H515.508C523.985 92.6187 524.553 92.0467 522.326 85.7337C517.433 71.8667 500.596 64.3477 485.337 69.2157ZM613.095 69.5587C605.791 72.1877 600.501 76.8147 596.622 83.9657C593.385 89.9327 593.284 90.4657 593.298 101.619C593.31 111.867 593.592 113.719 595.888 118.632C601.283 130.177 610.852 136.024 624.284 135.984C630.411 135.965 633.523 135.419 637.573 133.65C643.543 131.042 650.062 124.339 651.826 118.993C653.664 113.425 652.788 112.619 644.897 112.619C638.033 112.619 637.92 112.662 635.784 116.12C632.657 121.178 630.075 122.619 624.138 122.619C619.943 122.619 618.316 122.095 615.719 119.91C611.084 116.01 608.832 110.356 608.806 102.547C608.759 88.6267 614.183 81.1897 624.381 81.1897C628.933 81.1897 630.183 81.6267 632.792 84.1267C634.478 85.7417 636.116 88.0887 636.43 89.3407C636.965 91.4707 637.514 91.6187 644.892 91.6187C652.416 91.6187 652.784 91.5137 652.763 89.3687C652.692 82.1227 643.311 71.7437 634.456 69.1137C627.711 67.1107 619.415 67.2837 613.095 69.5587ZM707.115 69.6867C699.052 72.2427 692.869 78.1027 689.919 85.9877C686.997 93.7967 686.89 110.242 689.711 117.667C695.253 132.251 708.628 138.763 725.72 135.199C734.522 133.364 740.004 129.901 743.961 123.673C748.558 116.437 748.085 115.619 739.319 115.619C732.813 115.619 731.713 115.883 730.755 117.673C727.674 123.43 716.617 125.533 710.22 121.579C706.931 119.547 704.065 113.993 703.532 108.619L703.284 106.119L726.167 105.85L749.05 105.581L748.505 98.8497C747.657 88.3627 745.372 82.3867 740.008 76.6347C731.979 68.0237 720.207 65.5377 707.115 69.6867ZM305.916 69.8767C304.063 70.4807 301.049 72.3897 299.217 74.1187L295.883 77.2607L295.584 73.6897L295.285 70.1187L288.035 69.8247L280.785 69.5307V102.075V134.619H288.285H295.785V118.668C295.785 101.52 296.901 93.7257 299.98 89.3667C302.711 85.5007 305.326 84.3407 312.785 83.6877L319.285 83.1187V76.1187V69.1187L314.285 68.9487C311.535 68.8547 307.768 69.2727 305.916 69.8767ZM583.534 69.4107C579.271 69.5717 575.784 69.8037 575.784 69.9267C575.784 70.0497 573.05 78.0177 569.708 87.6347C566.366 97.2507 562.923 107.257 562.056 109.869C561.189 112.481 560.158 114.619 559.764 114.619C559.024 114.619 555.536 105.738 547.289 82.8687L542.511 69.6187H534.147C529.288 69.6187 525.784 70.0337 525.784 70.6097C525.784 71.7167 532.177 87.6067 539.081 103.662C545.747 119.163 550.784 132.132 550.784 133.794C550.784 134.598 548.534 140.819 545.784 147.619C543.034 154.419 540.784 160.126 540.784 160.301C540.784 160.476 544.334 160.619 548.673 160.619H556.563L563.536 143.369C567.372 133.881 575.578 113.598 581.772 98.2937C587.967 82.9907 592.641 70.1657 592.159 69.7937C591.678 69.4227 587.797 69.2497 583.534 69.4107ZM347.751 80.4387C342.696 82.6797 338.386 88.8137 338.973 92.9367C339.276 95.0607 339.656 95.1187 353.285 95.1187H367.285L367.58 92.5847C367.978 89.1667 364.044 83.5197 359.765 81.3707C356.267 79.6127 350.605 79.1737 347.751 80.4387ZM416.084 81.5787C412.527 83.7467 410.079 87.7547 409.6 92.1927L409.285 95.1187H423.785H438.285L438.002 92.6187C436.825 82.1927 424.916 76.1927 416.084 81.5787ZM710.818 81.3707C706.967 83.3127 704.122 87.5587 703.617 92.1187L703.284 95.1187L717.555 95.3967C733.906 95.7147 734.182 95.5667 730.931 88.2187C727.432 80.3087 718.769 77.3587 710.818 81.3707Z" fill="#2E250A"/>
</svg>
