<svg width="198" height="201" viewBox="0 0 198 201" fill="none" xmlns="http://www.w3.org/2000/svg">
<path d="M158.24 66.7005L148.145 86.0266H124.782L111.429 62.9121L101.84 46.2915L88.3145 22.8735H132.941L156.055 62.9121L158.24 66.7005Z" fill="#4BA950"/>
<path d="M101.84 46.2879L92.2526 62.9084L85.9215 73.7742L52.4463 54.4463L61.9215 38.1112C64.5966 33.4782 68.4438 29.631 73.0763 26.9562C77.7095 24.2814 82.9644 22.8733 88.3139 22.8735L101.84 46.2879Z" fill="#D7EDBE"/>
<path d="M97.1335 54.4523L88.3135 22.8735L101.841 46.2879L97.1335 54.4523Z" fill="#CCD4C6"/>
<path d="M108.611 177.374L96.9219 158.968L108.603 138.734L135.298 138.728L154.486 138.733L181.529 138.729L159.216 177.377L112.984 177.375L108.611 177.374Z" fill="#4BA950"/>
<path d="M154.489 138.734L144.888 122.121L138.644 111.206L172.12 91.8794L181.528 108.253C184.204 112.886 185.612 118.141 185.612 123.491C185.612 128.841 184.204 134.095 181.528 138.729L154.489 138.734Z" fill="#D7EDBE"/>
<path d="M149.771 130.576L181.529 138.727L154.488 138.735L149.771 130.576Z" fill="#CCD4C6"/>
<path d="M36.6892 79.7539L58.4602 78.5547L70.4003 98.636L57.357 121.927L47.9715 138.663L34.7551 162.257L11.9482 123.899L34.5502 83.5689L36.6892 79.7539Z" fill="#4BA950"/>
<path d="M47.9681 138.666L67.1536 138.412L79.7287 138.301L80.2238 176.952L61.3402 177.156C55.9914 177.224 50.7184 175.884 46.0516 173.269C41.3848 170.654 37.4887 166.856 34.7549 162.258L47.9681 138.666Z" fill="#D7EDBE"/>
<path d="M57.3926 138.54L34.7568 162.259L47.969 138.666L57.3926 138.54Z" fill="#CCD4C6"/>
</svg>
