<svg width="117" height="121" viewBox="0 0 117 121" fill="none" xmlns="http://www.w3.org/2000/svg">
<path fill-rule="evenodd" clip-rule="evenodd" d="M50.7163 0.326246C30.4158 3.59653 13.7391 16.2364 5.41791 34.6588C0.519296 45.5043 -1.55923 61.0621 1.29578 65.5183C3.01269 68.1983 6.30625 69.0005 9.23406 67.4519C11.4694 66.2696 12.0885 64.3003 12.4903 57.095C12.6774 53.7448 13.3639 48.869 14.0167 46.2592C17.5996 31.9285 30.3513 18.7318 45.0939 14.0975C47.8986 13.2155 50.6347 12.977 58.1143 12.96C66.6154 12.9413 68.0074 13.0884 71.7264 14.399C77.2122 16.3326 86.8135 21.8047 86.817 22.9991C86.8176 23.2055 85.6198 24.5998 84.155 26.0981C79.615 30.742 80.4838 32.3856 88.0552 33.4765C105.602 36.0052 107.612 36.0633 108.362 34.0631C108.775 32.9625 106.002 11.5586 105.149 9.26415C104.246 6.83353 102.251 7.39714 98.6833 11.093L95.4975 14.393L93.3769 12.6864C83.488 4.72558 69.5657 -0.185909 57.4295 0.00539247C54.5508 0.0507963 51.5301 0.195483 50.7163 0.326246ZM57.3171 27.9621C56.9732 28.3858 56.6122 30.7638 56.5151 33.2465L56.3388 37.7596L53.553 37.943L50.7672 38.1265L50.5938 33.4662C50.4577 29.8139 50.1961 28.6619 49.3847 28.14C48.6313 27.6557 48.0667 27.6557 47.3133 28.14C46.5025 28.6613 46.2403 29.8121 46.1048 33.4341L45.9319 38.0623H43.1006C39.3058 38.0623 37.551 39.8924 37.1172 44.302L36.8082 47.4458L32.1972 47.6231C27.9704 47.7854 27.5318 47.9228 26.9317 49.2698C25.7965 51.8178 27.0802 52.5915 32.4417 52.5915H37.1041V55.3158V58.04H32.7074C28.3 58.04 26.4511 58.8222 26.4511 60.6861C26.4511 62.3346 27.9662 62.8831 32.5204 62.8831H37.1692L36.9887 65.7586L36.8082 68.6342L32.3961 68.8146C26.8358 69.0416 25.2947 70.0896 27.3809 72.2236C28.0597 72.9173 29.5002 73.1746 32.7074 73.1746H37.1041V75.8522C37.1041 77.85 37.4936 79.0033 38.6364 80.3926C39.9645 82.0072 40.5563 82.2554 43.0751 82.2554H45.9816V86.6747C45.9816 91.226 46.5362 92.5469 48.4466 92.5469C50.0292 92.5469 50.7163 90.6254 50.7163 86.197V82.1888L53.5275 82.3734L56.3388 82.5581L56.5139 87.3824C56.6933 92.3181 57.1235 93.225 59.0446 92.711C59.9785 92.461 60.165 91.6915 60.3106 87.4877L60.4816 82.5581H63.4408H66.3999L66.6959 87.4012C66.9734 91.944 67.0794 92.2569 68.4045 92.4482C70.3794 92.734 70.8192 91.6818 70.8298 86.6444L70.8387 82.2554H73.9819C78.439 82.2554 80.8999 79.6571 80.8999 74.9514C80.8999 73.1861 80.9224 73.1746 84.4024 73.1746C89.0021 73.1746 89.7774 72.8162 89.7774 70.6883V68.9369H85.3386H80.8999V65.91V62.8831H85.022C88.4866 62.8831 89.2412 62.6972 89.7543 61.7159C91.1564 59.0365 89.0713 57.7633 83.881 58.1314L80.8993 58.3427V55.4671L80.8999 52.5915H85.022C88.5381 52.5915 89.2371 52.4135 89.7774 51.3808C90.2272 50.5205 90.2272 49.8195 89.7774 48.9592C89.2371 47.9264 88.5381 47.7485 85.022 47.7485H80.8999V45.669C80.8999 40.6497 78.5467 38.0623 73.9819 38.0623H70.8387V33.5649C70.8387 28.4948 69.8983 26.6659 67.863 27.7798C66.9415 28.2841 66.7148 29.2134 66.5728 33.0757L66.3999 37.7596H63.4408H60.4816L60.3088 33.0757C60.1679 29.2473 59.9359 28.2817 59.0393 27.7913C58.2616 27.3658 57.7603 27.4154 57.3171 27.9621ZM41.8388 60.1588V77.4123H58.7061H75.5734V60.1588V42.9054H58.7061H41.8388V60.1588ZM50.6648 50.3407C48.8071 51.7997 48.349 53.7387 48.349 60.1492C48.349 66.8181 49.0829 69.6095 51.0389 70.3771C51.5656 70.5836 55.1415 70.7531 58.9848 70.7531C68.9146 70.7531 68.7673 70.9129 68.7673 60.1588C68.7673 49.3697 68.9436 49.5567 58.7884 49.584C54.0762 49.5967 51.2809 49.857 50.6648 50.3407ZM106.98 53.651C105.298 55.2474 105.21 55.59 104.853 61.975C104.402 70.0109 103.39 74.8933 101.101 80.056C89.0488 107.245 56.9927 116.557 32.5636 99.9653C30.8295 98.7878 29.4103 97.6667 29.4103 97.4748C29.4103 97.2828 30.7768 95.7101 32.4464 93.9805C34.97 91.3664 35.4198 90.5782 35.1085 89.3099C34.9025 88.4709 34.2687 87.6342 33.6999 87.4508C32.3854 87.0264 19.1846 85.3265 13.7089 84.8767C8.00008 84.4075 7.76158 84.7471 8.64518 92.0862C11.0693 112.213 10.9249 111.56 13.0023 111.808C14.2457 111.956 15.2992 111.326 17.7162 108.988L20.8287 105.977L24.6756 108.973C28.4219 111.892 37.0763 116.552 41.247 117.898C46.1758 119.488 54.8225 121 58.9878 121C65.7495 121 74.2832 118.964 82.4552 115.401C89.1968 112.463 95.5229 107.786 101.407 101.392C111.55 90.3706 116.994 76.6556 117 62.107C117.003 54.6565 115.377 51.9861 110.836 51.9861C109.364 51.9861 108.209 52.4844 106.98 53.651Z" fill="white"/>
</svg>
