<svg width="198" height="201" viewBox="0 0 198 201" fill="none" xmlns="http://www.w3.org/2000/svg">
<path d="M158.24 66.8269L148.145 86.153H124.782L111.429 63.0385L101.84 46.418L88.3145 23H132.941L156.055 63.0385L158.24 66.8269Z" fill="white"/>
<path d="M101.84 46.4143L92.2526 63.0349L85.9215 73.9006L52.4463 54.5728L61.9215 38.2376C64.5966 33.6047 68.4438 29.7574 73.0763 27.0827C77.7095 24.4079 82.9644 22.9998 88.3139 23L101.84 46.4143Z" fill="#D7EDBE"/>
<path d="M97.1335 54.5788L88.3135 23L101.841 46.4143L97.1335 54.5788Z" fill="#CCD4C6"/>
<path d="M108.611 177.5L96.9219 159.094L108.603 138.861L135.298 138.854L154.486 138.86L181.529 138.855L159.216 177.503L112.984 177.501L108.611 177.5Z" fill="white"/>
<path d="M154.489 138.861L144.888 122.248L138.644 111.333L172.12 92.0059L181.528 108.38C184.204 113.012 185.612 118.268 185.612 123.617C185.612 128.967 184.204 134.222 181.528 138.855L154.489 138.861Z" fill="#D7EDBE"/>
<path d="M149.771 130.703L181.529 138.853L154.488 138.861L149.771 130.703Z" fill="#CCD4C6"/>
<path d="M36.6892 79.8804L58.4602 78.6812L70.4003 98.7625L57.357 122.054L47.9715 138.79L34.7551 162.384L11.9482 124.025L34.5502 83.6954L36.6892 79.8804Z" fill="white"/>
<path d="M47.9681 138.793L67.1536 138.539L79.7287 138.427L80.2238 177.078L61.3402 177.283C55.9914 177.351 50.7184 176.01 46.0516 173.395C41.3848 170.78 37.4887 166.983 34.7549 162.384L47.9681 138.793Z" fill="#D7EDBE"/>
<path d="M57.3926 138.666L34.7568 162.386L47.969 138.792L57.3926 138.666Z" fill="#CCD4C6"/>
</svg>
