<svg width="750" height="201" viewBox="0 0 750 201" fill="none" xmlns="http://www.w3.org/2000/svg">
<path d="M119.266 75.0189L111.657 89.6194H94.0482L83.9841 72.1569L76.7567 59.6004L66.5627 41.9086H100.198L117.619 72.1569L119.266 75.0189Z" fill="white"/>
<path d="M76.7572 59.5976L69.5312 72.1541L64.7595 80.363L39.5291 65.7612L46.6706 53.4203C48.6868 49.9202 51.5864 47.0137 55.078 44.9929C58.57 42.9722 62.5307 41.9084 66.5627 41.9086L76.7572 59.5976Z" fill="#D7EDBE"/>
<path d="M73.2094 65.7657L66.5617 41.9086L76.7577 59.5976L73.2094 65.7657Z" fill="#CCD4C6"/>
<path d="M81.8601 158.63L73.0502 144.725L81.8544 129.439L101.974 129.434L116.436 129.438L136.819 129.435L120.002 158.632L85.1565 158.631L81.8601 158.63Z" fill="white"/>
<path d="M116.439 129.439L109.203 116.888L104.496 108.642L129.728 94.0411L136.819 106.411C138.835 109.911 139.897 113.882 139.897 117.923C139.897 121.965 138.835 125.935 136.819 129.435L116.439 129.439Z" fill="#D7EDBE"/>
<path d="M112.883 123.276L136.819 129.433L116.438 129.44L112.883 123.276Z" fill="#CCD4C6"/>
<path d="M27.6527 84.8807L44.0616 83.9747L53.0608 99.1458L43.2301 116.742L36.1562 129.386L26.1949 147.21L9.00531 118.231L26.0405 87.7629L27.6527 84.8807Z" fill="white"/>
<path d="M36.1536 129.387L50.6138 129.196L60.0917 129.111L60.4649 158.311L46.2322 158.466C42.2007 158.517 38.2265 157.504 34.7091 155.529C31.1917 153.553 28.2552 150.684 26.1947 147.21L36.1536 129.387Z" fill="#D7EDBE"/>
<path d="M43.2569 129.292L26.1963 147.212L36.1544 129.387L43.2569 129.292Z" fill="#CCD4C6"/>
<path d="M201.164 139.482C197.822 139.482 195.249 138.574 193.442 136.757C191.727 134.941 190.869 132.353 190.869 128.993V86.7674H185.992C183.464 86.7674 181.477 86.0864 180.032 84.7243C178.677 83.3621 178 81.5006 178 79.1395C178 76.5969 178.677 74.6899 180.032 73.4186C181.477 72.0565 183.464 71.3754 185.992 71.3754H196.829L190.869 76.8239V72.6013C190.869 62.8848 193.262 55.6202 198.048 50.8073C202.925 45.9945 210.059 43.0886 219.451 42.0897L223.785 41.6811C226.133 41.4994 227.985 41.8627 229.339 42.7708C230.784 43.6788 231.732 44.8594 232.184 46.3123C232.636 47.7652 232.726 49.2636 232.455 50.8073C232.184 52.2602 231.552 53.577 230.558 54.7575C229.655 55.8472 228.391 56.4374 226.766 56.5282L224.869 56.6645C219.993 57.0277 216.516 58.2082 214.439 60.206C212.362 62.113 211.323 65.0642 211.323 69.0598V73.691L208.749 71.3754H220.941C223.56 71.3754 225.546 72.0565 226.901 73.4186C228.256 74.6899 228.933 76.5969 228.933 79.1395C228.933 81.5006 228.256 83.3621 226.901 84.7243C225.546 86.0864 223.56 86.7674 220.941 86.7674H211.323V128.993C211.323 135.986 207.937 139.482 201.164 139.482Z" fill="white"/>
<path d="M248.011 139.482C244.579 139.482 241.96 138.574 240.154 136.757C238.348 134.941 237.445 132.353 237.445 128.993V80.6379C237.445 77.278 238.303 74.7353 240.018 73.01C241.825 71.1938 244.308 70.2857 247.469 70.2857C250.72 70.2857 253.203 71.1938 254.919 73.01C256.635 74.7353 257.493 77.278 257.493 80.6379V87.7209H256.138C257.222 82.2724 259.615 78.0498 263.318 75.0532C267.02 72.0565 271.806 70.3765 277.676 70.0133C279.934 69.8317 281.65 70.4219 282.824 71.7841C284.088 73.0554 284.765 75.1894 284.856 78.1861C285.036 81.0011 284.449 83.2259 283.095 84.8605C281.83 86.495 279.663 87.4939 276.593 87.8572L273.477 88.1296C268.33 88.5836 264.492 90.082 261.963 92.6246C259.525 95.1672 258.306 98.845 258.306 103.658V128.993C258.306 132.353 257.403 134.941 255.596 136.757C253.881 138.574 251.352 139.482 248.011 139.482Z" fill="white"/>
<path d="M326.621 139.754C318.764 139.754 311.991 138.347 306.302 135.532C300.703 132.626 296.368 128.585 293.298 123.409C290.318 118.142 288.827 111.967 288.827 104.884C288.827 97.9823 290.272 91.9435 293.162 86.7674C296.052 81.5006 300.071 77.4142 305.218 74.5083C310.456 71.5116 316.371 70.0133 322.963 70.0133C327.75 70.0133 332.084 70.8306 335.968 72.4651C339.851 74.0089 343.192 76.2791 345.992 79.2757C348.791 82.1816 350.913 85.7686 352.358 90.0365C353.803 94.2137 354.526 98.8904 354.526 104.066C354.526 105.792 353.984 107.109 352.9 108.017C351.816 108.834 350.236 109.243 348.159 109.243H305.625V98.6179H339.76L337.593 100.525C337.593 96.8018 337.051 93.7143 335.968 91.2625C334.884 88.7198 333.304 86.8128 331.226 85.5415C329.24 84.2702 326.756 83.6346 323.776 83.6346C320.435 83.6346 317.59 84.4064 315.242 85.9502C312.894 87.4939 311.088 89.7187 309.824 92.6246C308.559 95.5305 307.927 99.0266 307.927 103.113V104.203C307.927 111.104 309.508 116.189 312.668 119.458C315.919 122.728 320.706 124.362 327.027 124.362C329.195 124.362 331.678 124.09 334.477 123.545C337.277 123 339.896 122.137 342.334 120.957C344.411 119.958 346.263 119.64 347.888 120.003C349.514 120.276 350.778 121.002 351.681 122.183C352.584 123.363 353.081 124.725 353.171 126.269C353.352 127.813 353.036 129.357 352.223 130.9C351.41 132.353 350.055 133.579 348.159 134.578C345.089 136.303 341.612 137.575 337.729 138.392C333.936 139.3 330.233 139.754 326.621 139.754Z" fill="white"/>
<path d="M400.965 139.754C393.108 139.754 386.335 138.347 380.646 135.532C375.047 132.626 370.712 128.585 367.642 123.409C364.662 118.142 363.172 111.967 363.172 104.884C363.172 97.9823 364.617 91.9435 367.506 86.7674C370.396 81.5006 374.415 77.4142 379.562 74.5083C384.8 71.5116 390.715 70.0133 397.308 70.0133C402.094 70.0133 406.429 70.8306 410.312 72.4651C414.195 74.0089 417.536 76.2791 420.336 79.2757C423.135 82.1816 425.258 85.7686 426.702 90.0365C428.147 94.2137 428.87 98.8904 428.87 104.066C428.87 105.792 428.328 107.109 427.244 108.017C426.161 108.834 424.58 109.243 422.503 109.243H379.969V98.6179H414.105L411.937 100.525C411.937 96.8018 411.396 93.7143 410.312 91.2625C409.228 88.7198 407.648 86.8128 405.571 85.5415C403.584 84.2702 401.101 83.6346 398.12 83.6346C394.779 83.6346 391.934 84.4064 389.586 85.9502C387.238 87.4939 385.432 89.7187 384.168 92.6246C382.904 95.5305 382.272 99.0266 382.272 103.113V104.203C382.272 111.104 383.852 116.189 387.013 119.458C390.264 122.728 395.05 124.362 401.371 124.362C403.539 124.362 406.022 124.09 408.822 123.545C411.621 123 414.24 122.137 416.678 120.957C418.756 119.958 420.607 119.64 422.232 120.003C423.858 120.276 425.122 121.002 426.025 122.183C426.928 123.363 427.425 124.725 427.515 126.269C427.696 127.813 427.38 129.357 426.567 130.9C425.754 132.353 424.4 133.579 422.503 134.578C419.433 136.303 415.956 137.575 412.073 138.392C408.28 139.3 404.577 139.754 400.965 139.754Z" fill="white"/>
<path d="M473.142 139.754C465.917 139.754 459.596 138.347 454.178 135.532C448.849 132.626 444.741 128.539 441.851 123.272C438.961 118.006 437.516 111.785 437.516 104.611C437.516 99.2536 438.329 94.4408 439.954 90.1728C441.58 85.9048 443.928 82.2724 446.998 79.2757C450.159 76.2791 453.952 74.0089 458.377 72.4651C462.802 70.8306 467.724 70.0133 473.142 70.0133C475.941 70.0133 478.922 70.3765 482.082 71.103C485.243 71.7387 488.359 72.8738 491.429 74.5083C493.235 75.3256 494.454 76.5061 495.087 78.0498C495.809 79.5028 496.08 81.0465 495.899 82.6811C495.719 84.2248 495.132 85.6323 494.138 86.9037C493.235 88.0842 492.061 88.9014 490.616 89.3555C489.171 89.7187 487.546 89.4463 485.74 88.5382C484.024 87.5393 482.218 86.8129 480.321 86.3588C478.515 85.9048 476.799 85.6777 475.174 85.6777C472.465 85.6777 470.072 86.1318 467.995 87.0399C465.917 87.8571 464.156 89.0831 462.712 90.7176C461.357 92.2614 460.273 94.2137 459.461 96.5748C458.738 98.9358 458.377 101.66 458.377 104.748C458.377 110.741 459.822 115.463 462.712 118.914C465.692 122.274 469.846 123.953 475.174 123.953C476.799 123.953 478.515 123.772 480.321 123.409C482.128 122.955 483.934 122.228 485.74 121.229C487.546 120.321 489.171 120.094 490.616 120.548C492.061 121.002 493.19 121.865 494.003 123.136C494.906 124.317 495.403 125.724 495.493 127.359C495.674 128.903 495.403 130.446 494.68 131.99C494.048 133.443 492.874 134.578 491.158 135.395C488.088 136.939 485.017 138.029 481.947 138.664C478.876 139.391 475.941 139.754 473.142 139.754Z" fill="white"/>
<path d="M524.929 164C522.581 164 520.639 163.364 519.104 162.093C517.569 160.822 516.666 159.142 516.395 157.053C516.124 155.055 516.485 152.921 517.479 150.651L526.555 130.492V138.937L502.578 83.6346C501.675 81.2735 501.359 79.0941 501.63 77.0963C501.991 75.0078 502.984 73.3732 504.61 72.1927C506.326 70.9214 508.674 70.2857 511.654 70.2857C514.092 70.2857 516.034 70.876 517.479 72.0565C519.014 73.1462 520.414 75.2802 521.678 78.4585L537.662 119.322H533.328L549.854 78.3223C551.118 75.2348 552.518 73.1462 554.053 72.0565C555.678 70.876 557.846 70.2857 560.555 70.2857C562.903 70.2857 564.754 70.9214 566.109 72.1927C567.554 73.3732 568.412 74.9623 568.683 76.9601C569.044 78.9579 568.683 81.1373 567.599 83.4983L535.766 156.1C534.411 159.187 532.876 161.276 531.16 162.365C529.535 163.455 527.458 164 524.929 164Z" fill="white"/>
<path d="M609.793 139.754C602.568 139.754 596.247 138.347 590.828 135.532C585.5 132.626 581.391 128.539 578.501 123.272C575.612 118.006 574.167 111.785 574.167 104.611C574.167 99.2536 574.979 94.4408 576.605 90.1728C578.23 85.9048 580.578 82.2724 583.649 79.2757C586.81 76.2791 590.602 74.0089 595.027 72.4651C599.452 70.8306 604.374 70.0133 609.793 70.0133C612.592 70.0133 615.572 70.3765 618.733 71.103C621.894 71.7387 625.009 72.8738 628.08 74.5083C629.886 75.3256 631.105 76.5061 631.737 78.0498C632.46 79.5028 632.73 81.0465 632.55 82.6811C632.369 84.2248 631.782 85.6323 630.789 86.9037C629.886 88.0842 628.712 88.9014 627.267 89.3555C625.822 89.7187 624.197 89.4463 622.39 88.5382C620.675 87.5393 618.868 86.8129 616.972 86.3588C615.166 85.9048 613.45 85.6777 611.824 85.6777C609.115 85.6777 606.722 86.1318 604.645 87.0399C602.568 87.8571 600.807 89.0831 599.362 90.7176C598.008 92.2614 596.924 94.2137 596.111 96.5748C595.389 98.9358 595.027 101.66 595.027 104.748C595.027 110.741 596.472 115.463 599.362 118.914C602.342 122.274 606.496 123.953 611.824 123.953C613.45 123.953 615.166 123.772 616.972 123.409C618.778 122.955 620.584 122.228 622.39 121.229C624.197 120.321 625.822 120.094 627.267 120.548C628.712 121.002 629.841 121.865 630.653 123.136C631.556 124.317 632.053 125.724 632.143 127.359C632.324 128.903 632.053 130.446 631.331 131.99C630.699 133.443 629.525 134.578 627.809 135.395C624.738 136.939 621.668 138.029 618.598 138.664C615.527 139.391 612.592 139.754 609.793 139.754Z" fill="white"/>
<path d="M666.082 139.754C658.044 139.754 652.039 137.529 648.065 133.08C644.092 128.539 642.105 121.819 642.105 112.92V51.4884C642.105 48.0377 642.963 45.4496 644.679 43.7243C646.485 41.9081 649.059 41 652.4 41C655.651 41 658.135 41.9081 659.85 43.7243C661.656 45.4496 662.56 48.0377 662.56 51.4884V112.103C662.56 115.826 663.327 118.596 664.862 120.412C666.488 122.137 668.61 123 671.229 123C671.951 123 672.629 122.955 673.261 122.864C673.893 122.773 674.57 122.728 675.293 122.728C676.738 122.546 677.731 123 678.273 124.09C678.905 125.089 679.221 127.132 679.221 130.219C679.221 132.944 678.679 135.032 677.596 136.485C676.512 137.847 674.841 138.755 672.584 139.209C671.681 139.3 670.642 139.391 669.468 139.482C668.294 139.663 667.165 139.754 666.082 139.754Z" fill="white"/>
<path d="M721.095 139.754C713.239 139.754 706.466 138.347 700.776 135.532C695.177 132.626 690.842 128.585 687.772 123.409C684.792 118.142 683.302 111.967 683.302 104.884C683.302 97.9823 684.747 91.9435 687.637 86.7674C690.526 81.5006 694.545 77.4142 699.693 74.5083C704.93 71.5116 710.845 70.0133 717.438 70.0133C722.224 70.0133 726.559 70.8306 730.442 72.4651C734.325 74.0089 737.667 76.2791 740.466 79.2757C743.266 82.1816 745.388 85.7686 746.833 90.0365C748.278 94.2137 749 98.8904 749 104.066C749 105.792 748.458 107.109 747.375 108.017C746.291 108.834 744.71 109.243 742.633 109.243H700.099V98.6179H734.235L732.068 100.525C732.068 96.8018 731.526 93.7143 730.442 91.2625C729.358 88.7198 727.778 86.8128 725.701 85.5415C723.714 84.2702 721.231 83.6346 718.251 83.6346C714.909 83.6346 712.065 84.4064 709.717 85.9502C707.369 87.4939 705.562 89.7187 704.298 92.6246C703.034 95.5305 702.402 99.0266 702.402 103.113V104.203C702.402 111.104 703.982 116.189 707.143 119.458C710.394 122.728 715.18 124.362 721.502 124.362C723.669 124.362 726.152 124.09 728.952 123.545C731.751 123 734.37 122.137 736.809 120.957C738.886 119.958 740.737 119.64 742.362 120.003C743.988 120.276 745.252 121.002 746.155 122.183C747.058 123.363 747.555 124.725 747.645 126.269C747.826 127.813 747.51 129.357 746.697 130.9C745.884 132.353 744.53 133.579 742.633 134.578C739.563 136.303 736.086 137.575 732.203 138.392C728.41 139.3 724.707 139.754 721.095 139.754Z" fill="white"/>
</svg>
