<svg width="390" height="75" viewBox="0 0 390 75" fill="none" xmlns="http://www.w3.org/2000/svg">
<path fill-rule="evenodd" clip-rule="evenodd" d="M248.545 40.1317C249.015 40.9176 249.655 41.5549 250.466 42.0427C249.986 42.4407 249.506 42.8391 249.025 43.2371C250.126 43.8534 251.087 44.6498 251.907 45.6259C250.246 45.7582 248.645 45.5987 247.105 45.1481C249.666 48.6515 252.227 48.6515 254.788 45.1481C254.047 45.0096 253.407 44.6914 252.867 44.1926C253.916 43.2295 254.876 42.1942 255.749 41.0872C255.04 39.7757 255.36 38.7404 256.709 37.9818C256.348 37.6612 256.188 37.2632 256.229 36.7874C258.043 34.9327 259.243 32.703 259.831 30.0988C260.829 32.2453 261.949 34.3154 263.192 36.3096C264.068 38.0936 264.549 40.0046 264.633 42.0427C264.902 42.2921 265.222 42.4512 265.593 42.5205C267.185 41.6882 268.546 40.5736 269.675 39.1762C268.875 38.8575 268.075 38.5393 267.274 38.2206C268.464 36.505 269.904 34.992 271.596 33.6819C270.58 33.8167 269.539 34.0555 268.475 34.3986C267.342 34.4827 267.102 34.164 267.754 33.4431C268.541 32.8903 269.341 32.3327 270.155 31.7709C269.758 31.3338 269.278 31.0156 268.715 30.8154C270.65 29.3659 272.41 27.7735 273.997 26.0378C273.513 25.4798 273.032 24.9222 272.556 24.3657C273.493 22.7957 274.614 21.3625 275.918 20.0658C274.745 18.7781 274.905 17.5837 276.398 16.4827C275.996 15.9995 275.836 15.4421 275.918 14.8105C276.982 14.4748 277.863 13.8378 278.559 12.8995C279.447 10.163 280.407 7.4557 281.441 4.77758C283.137 9.26693 285.218 13.5668 287.684 17.677C287.983 18.6156 287.743 19.4118 286.963 20.0658C288.076 21.4117 289.277 22.6859 290.565 23.8879C290.797 24.3408 290.877 24.8186 290.805 25.3212C289.946 25.185 289.146 25.3441 288.404 25.7989C290.554 27.3803 292.635 29.0525 294.647 30.8154C293.905 30.9539 293.265 31.2721 292.726 31.7709C293.791 32.3767 294.751 33.0933 295.607 33.9208C294.121 34.4554 292.68 34.2963 291.285 33.4431C291.125 33.5228 290.965 33.6022 290.805 33.6819C292.617 36.0459 294.858 36.4443 297.528 34.8763C298.201 33.7861 297.881 33.0695 296.568 32.7264C297.448 31.8507 298.329 30.9745 299.209 30.0988C299.495 29.4304 299.415 28.7935 298.969 28.1877C299.228 27.5915 299.549 27.0339 299.929 26.5156C299.769 26.3565 299.609 26.1969 299.449 26.0378C301.579 23.7909 303.02 21.1632 303.771 18.1548C304.405 19.8786 304.965 21.6305 305.452 23.4101C306.888 24.8386 307.928 26.5108 308.573 28.4266C308.185 28.5737 307.865 28.8126 307.613 29.1432C308.573 30.2578 309.534 31.3729 310.494 32.4875C310.071 33.1903 309.431 33.5883 308.573 33.6819C309.934 34.7172 311.295 35.7521 312.655 36.7874C312.952 37.2408 312.872 37.6387 312.415 37.9818C312.985 38.4686 313.466 39.0261 313.856 39.6539C312.937 39.9172 311.977 39.9969 310.975 39.8928C312.095 40.7685 313.216 41.6447 314.336 42.5205C313.765 42.9643 313.125 43.1234 312.415 42.9982C313.013 44.5485 314.133 45.6632 315.777 46.3425C316.649 45.2356 317.609 44.2003 318.658 43.2371C318.338 42.9184 318.018 42.6002 317.698 42.2816C319.515 39.5426 321.036 36.5963 322.26 33.4431C323.039 34.7913 323.599 36.2246 323.941 37.7429C324.29 38.8107 324.93 39.6864 325.862 40.3706C325.702 40.5296 325.541 40.6892 325.381 40.8483C326.16 41.8831 326.56 43.0775 326.582 44.4315C327.625 44.9136 328.185 45.71 328.263 46.8203C326.518 46.793 326.438 47.2708 328.023 48.2536C329.204 47.557 330.245 46.6813 331.144 45.6259C330.316 45.8213 329.515 45.7415 328.743 45.387C329.267 44.1477 330.068 43.1124 331.144 42.2816C330.126 42.2348 329.326 41.8368 328.743 41.0872C329.718 40.2869 330.679 39.491 331.624 38.6984C332.681 38.5274 333.322 37.89 333.545 36.7874C332.525 36.4773 331.565 36.0788 330.664 35.593C332.425 34.2395 334.185 32.8855 335.946 31.532C335.786 31.3729 335.626 31.2134 335.466 31.0543C334.086 31.9978 332.645 32.3165 331.144 32.0098C331.876 30.8832 332.836 30.0075 334.025 29.3821C333.628 28.945 333.148 28.6268 332.585 28.4266C334.589 26.8295 336.51 25.1573 338.347 23.4101C337.547 23.0915 336.747 22.7733 335.946 22.4546C337.045 20.7242 338.325 19.1317 339.788 17.677C338.623 16.1405 338.943 14.8665 340.749 13.855C340.428 13.5365 340.108 13.218 339.788 12.8995C340.74 12.1914 341.621 11.3951 342.429 10.5107C343.112 7.99151 344.073 5.60272 345.311 3.34431C345.837 3.91446 346.237 4.55146 346.511 5.25534C346.971 8.09604 348.252 10.4848 350.353 12.4217C350.776 13.9089 351.256 15.3422 351.794 16.7215C351.23 16.6169 350.749 16.7761 350.353 17.1993C351.004 18.1649 351.804 18.9612 352.754 19.5881C353.813 20.4781 354.454 21.5932 354.675 22.9324C353.816 22.7962 353.016 22.9553 352.274 23.4101C354.424 24.9915 356.505 26.6637 358.517 28.4266C357.977 28.5456 357.497 28.7844 357.076 29.1432C357.799 30.0515 358.6 30.8479 359.477 31.532C359.492 32.0084 359.252 32.327 358.757 32.4875C357.579 31.8536 356.379 31.4551 355.155 31.2931C356.658 32.3098 358.019 33.5042 359.237 34.8763C359.469 35.3293 359.549 35.807 359.477 36.3096C358.837 36.3096 358.197 36.3096 357.556 36.3096C357.624 37.7333 358.345 38.6888 359.717 39.1762C361.142 38.3171 362.342 37.2025 363.319 35.8318C362.923 35.4086 362.443 35.2495 361.879 35.3541C361.996 34.034 362.636 32.9992 363.799 32.2487C363.1 32.0466 362.86 31.6486 363.079 31.0543C365.513 29.717 366.714 27.6469 366.681 24.8434C367.243 23.8162 367.723 22.7011 368.121 21.4991C368.442 20.8623 368.762 20.8623 369.082 21.4991C369.825 24.0929 370.706 26.6412 371.723 29.1432C372.648 29.8025 373.528 30.5192 374.364 31.2931C373.211 31.9959 373.291 32.7126 374.605 33.4431C374.679 34.5687 374.679 35.6833 374.605 36.7874C376.154 37.9192 377.194 39.3524 377.726 41.0872C376.91 41.0107 376.11 41.0901 375.325 41.3261C376.59 42.9103 378.111 44.1047 379.887 44.9093C381.751 44.4162 383.272 43.3814 384.449 41.8038C383.759 41.6992 383.118 41.4603 382.528 41.0872C383.16 40.2196 383.88 39.4232 384.689 38.6984C384.536 35.9637 385.497 33.734 387.571 32.0098C387.832 29.9545 388.472 28.0434 389.492 26.2767C390.057 28.3693 390.698 30.4394 391.412 32.4875C392.09 33.1024 392.81 33.66 393.573 34.1597C393.876 35.2643 393.876 36.4587 393.573 37.7429C394.205 38.6105 394.925 39.4069 395.734 40.1317C395.966 40.5846 396.046 41.0623 395.975 41.5649C395.469 41.4938 394.989 41.5731 394.534 41.8038C395.832 43.2553 397.273 44.5294 398.856 45.6259C398.468 45.773 398.148 46.0119 397.895 46.3425C398.607 46.8107 399.247 47.3683 399.816 48.0147C398.665 48.1934 397.544 48.1934 396.455 48.0147C397.736 48.9702 399.016 49.9257 400.297 50.8812C399.692 51.3222 399.052 51.7206 398.376 52.0756C399.293 53.3283 400.414 54.3636 401.737 55.181C401.047 55.2857 400.407 55.5246 399.816 55.8977C400.297 56.6941 400.937 57.331 401.737 57.8087C401.147 58.1818 400.507 58.4207 399.816 58.5254C401.204 59.4512 402.484 60.4865 403.658 61.6308C402.393 61.9996 401.113 62.0789 399.816 61.8697C400.683 63.9259 402.123 65.439 404.138 66.4084C402.758 66.7934 401.477 66.953 400.297 66.8861C401.682 68.3414 403.283 69.5358 405.099 70.4693C404.619 70.8673 404.138 71.2657 403.658 71.6637C404.818 72.559 406.098 73.1959 407.5 73.5747C407.447 73.8695 407.287 74.1084 407.02 74.2914C405.427 74.5293 403.826 74.6091 402.217 74.5302C273.795 74.5293 145.254 74.5293 16.596 74.5302C15.6356 73.8934 14.6751 73.8934 13.7147 74.5302C3.32678 75.1566 -7.07814 75.1566 -17.5 74.5302C-16.1755 72.9928 -14.5748 71.7984 -12.6977 70.9471C-13.8505 70.8582 -14.971 70.6193 -16.0593 70.2304C-14.8218 68.8043 -13.5412 67.371 -12.2175 65.9306C-13.4763 65.8833 -14.7569 65.7237 -16.0593 65.4528C-15.1415 64.2002 -14.021 63.1649 -12.6977 62.3474C-13.2375 62.2285 -13.7177 61.9896 -14.1384 61.6308C-13.4981 60.9939 -12.8578 60.3566 -12.2175 59.7197C-12.8578 59.4011 -13.4981 59.0829 -14.1384 58.7642C-12.9284 57.9219 -11.8079 56.9664 -10.7768 55.8977C-11.4529 55.5427 -12.0932 55.1443 -12.6977 54.7033C-11.3357 53.7444 -10.0551 52.7091 -8.85593 51.5979C-8.93599 51.4388 -9.01599 51.2792 -9.09605 51.1201C-12.3976 52.6098 -12.7977 52.2118 -10.2966 49.9257C-10.6168 49.7666 -10.9369 49.607 -11.2571 49.448C-9.72605 48.286 -8.28538 47.0119 -6.93503 45.6259C-7.62559 45.5213 -8.26588 45.2824 -8.85593 44.9093C-7.89548 43.7946 -6.93503 42.6796 -5.97458 41.5649C-6.2777 40.2807 -6.2777 39.0863 -5.97458 37.9818C-3.86888 36.1687 -2.66832 33.8592 -2.37288 31.0543C-2.05272 30.4174 -1.7326 30.4174 -1.41243 31.0543C-0.897387 33.9901 0.383184 36.538 2.42938 38.6984C2.03238 41.1178 2.91277 43.0288 5.07062 44.4315C4.66387 45.1319 4.02358 45.5303 3.14972 45.6259C4.50006 47.0119 5.94074 48.286 7.47175 49.448C7.15158 49.607 6.83147 49.7666 6.5113 49.9257C7.70418 51.5458 9.14486 51.864 10.8333 50.8812C11.4995 49.339 12.46 47.9855 13.7147 46.8203C11.9538 46.8203 10.193 46.8203 8.4322 46.8203C9.82673 44.8749 11.5875 43.3618 13.7147 42.2816C12.4895 42.2806 11.5291 41.8822 10.8333 41.0872C11.9631 40.6859 12.9235 40.0485 13.7147 39.1762C12.5858 38.9315 11.6254 38.4538 10.8333 37.7429C12.0304 36.7491 13.3111 35.8729 14.6751 35.1152C15.4132 34.5849 15.7333 33.8683 15.6356 32.9653C14.8352 32.9653 14.0349 32.9653 13.2345 32.9653C13.3965 31.5196 14.1969 30.5641 15.6356 30.0988C16.3008 29.5665 17.0212 29.0888 17.7966 28.6655C18.1269 28.268 18.0468 27.9498 17.5565 27.71C16.3833 28.4529 15.1027 28.7715 13.7147 28.6655C14.0521 27.6068 14.6924 26.731 15.6356 26.0378C15.3154 25.7191 14.9953 25.401 14.6751 25.0823C16.7561 23.3304 18.8371 21.5789 20.9181 19.827C19.9208 19.7352 18.9603 19.4963 18.0367 19.1103C19.3278 17.7468 20.5283 16.3135 21.6384 14.8105C21.7985 14.0715 21.5584 13.4345 20.9181 12.8995C21.8504 12.0319 22.1706 11.0764 21.8785 10.0329C22.6705 9.00579 23.5509 8.05027 24.5198 7.16637C25.11 4.76358 26.0704 2.53408 27.4011 0.477758C28.934 3.92703 30.7747 7.19169 32.9237 10.2718C33.1057 11.2715 33.426 12.227 33.8842 13.1383C33.6335 13.5924 33.3132 13.9905 32.9237 14.3327C34.0364 15.6788 35.237 16.9528 36.5254 18.1548C36.7574 18.6077 36.8371 19.0855 36.7655 19.5881C35.9069 19.4519 35.1064 19.611 34.3644 20.0658C36.3751 21.6252 38.296 23.2974 40.1271 25.0823C39.5643 25.2825 39.0841 25.6007 38.6864 26.0378C40.1055 26.7296 41.066 27.7649 41.5678 29.1432C39.9739 28.5857 38.3729 28.1872 36.7655 27.9488C38.6091 29.3864 40.3701 30.8995 42.048 32.4875C41.3061 32.9424 40.5055 33.1015 39.6469 32.9653C39.7487 34.4999 40.5492 35.4554 42.048 35.8318C42.8135 36.5404 43.6136 37.257 44.4492 37.9818C40.7615 38.6946 40.6818 39.7299 44.209 41.0872C46.1626 40.1025 47.8434 38.7486 49.2514 37.0262C48.4667 36.7902 47.6662 36.7109 46.8503 36.7874C46.7787 36.2848 46.8584 35.807 47.0904 35.3541C48.3788 34.1521 49.5794 32.8779 50.6921 31.532C50.2527 31.1364 49.9329 30.6587 49.7316 30.0988C50.003 29.1886 50.4832 28.3927 51.1723 27.71C50.8712 27.2719 50.7108 26.7941 50.6921 26.2767C51.5224 25.9819 52.2427 25.5042 52.8531 24.8434C54.0402 22.0304 55.0809 19.1637 55.9746 16.2438C57.5891 20.5713 59.5902 24.712 61.9774 28.6655C62.3918 29.74 62.1517 30.6157 61.2571 31.2931C62.4576 32.4875 63.6582 33.6819 64.8588 34.8763C65.0941 35.4941 65.1743 36.1314 65.0989 36.7874C64.283 36.7109 63.4824 36.7902 62.6977 37.0262C64.7786 38.7782 66.8599 40.5296 68.9407 42.2816C68.543 42.7187 68.0628 43.0369 67.5 43.2371C68.5013 43.7344 69.3018 44.4511 69.9011 45.387C68.3735 45.7353 66.9329 45.7353 65.5791 45.387C68.1718 47.9683 70.7329 47.889 73.2627 45.1481C72.5721 45.0435 71.932 44.8046 71.3418 44.4315C71.9733 43.5639 72.6936 42.7675 73.5028 42.0427C73.5081 40.5335 73.9086 39.1795 74.7034 37.9818C74.5435 37.8227 74.3831 37.6631 74.2232 37.504C76.0173 35.2886 77.3783 32.8201 78.3051 30.0988C79.6329 33.2166 81.0736 36.2427 82.6271 39.1762C82.156 42.218 83.1967 42.9347 85.7486 41.3261C86.8272 40.7255 87.4673 39.8498 87.6695 38.6984C87.0293 38.6984 86.3887 38.6984 85.7486 38.6984C86.5482 36.5442 87.9888 34.872 90.0706 33.6819C88.9599 33.7531 87.839 33.992 86.709 34.3986C86.3887 34.2395 86.0689 34.0799 85.7486 33.9208C86.4324 32.8612 87.3929 32.1445 88.6299 31.7709C88.0907 31.2721 87.4505 30.9539 86.709 30.8154C88.8091 29.138 90.8899 27.4658 92.952 25.7989C92.21 25.3441 91.4095 25.185 90.5508 25.3212C91.2467 23.4235 92.4473 21.8307 94.1525 20.5436C94.3413 19.7319 94.1012 19.0152 93.4322 18.3937C93.8111 17.6171 94.2913 16.9005 94.8729 16.2438C94.6208 15.913 94.3005 15.6741 93.9124 15.5271C94.7485 14.7534 95.6292 14.0367 96.5537 13.3772C97.1847 10.7656 98.2253 8.37682 99.6751 6.21085C101.734 10.4785 103.976 14.6191 106.398 18.6326C105.918 18.9511 105.438 19.2696 104.958 19.5881C106.07 20.9339 107.271 22.2081 108.559 23.4101C108.795 24.0279 108.875 24.6652 108.799 25.3212C107.984 25.2447 107.183 25.324 106.398 25.5601C107.164 26.5643 108.125 27.2809 109.28 27.71C110.379 28.6406 111.499 29.5962 112.641 30.5765C112.161 30.8952 111.681 31.2134 111.201 31.532C112.094 32.2195 112.894 33.0155 113.602 33.9208C111.913 34.5562 110.392 34.2376 109.04 32.9653C109.164 34.2156 109.885 35.0913 111.201 35.593C113.386 36.2322 115.147 35.6747 116.483 33.9208C116.2 33.3002 115.719 32.9022 115.042 32.7264C115.83 32.187 116.311 31.4704 116.483 30.5765C117.528 29.997 117.688 29.2006 116.963 28.1877C117.354 27.5599 117.834 27.0024 118.404 26.5156C118.244 26.3565 118.084 26.1969 117.924 26.0378C119.725 23.8072 121.086 21.3386 122.006 18.6326C123.033 21.3137 124.314 23.8621 125.847 26.2767C126.177 27.2647 126.097 28.2202 125.607 29.1432C126.399 30.1704 127.279 31.1259 128.249 32.0098C128.481 32.4627 128.56 32.9405 128.489 33.4431C127.983 33.3719 127.503 33.4512 127.048 33.6819C128.58 34.8114 130.021 36.0058 131.37 37.2651C131.169 37.6101 130.849 37.8489 130.41 37.9818C132.911 40.2678 132.511 40.6658 129.209 39.1762C129.129 39.3352 129.049 39.4948 128.969 39.6539C130.198 40.501 131.319 41.4565 132.331 42.5205C131.934 42.9438 131.454 43.1028 130.89 42.9982C131.15 44.7721 132.19 45.8867 134.011 46.3425C134.812 45.5461 135.612 44.7502 136.412 43.9537C136.319 43.1769 136.319 42.3805 136.412 41.5649C137.933 39.3357 139.133 36.9469 140.014 34.3986C139.951 33.9801 140.111 33.6614 140.494 33.4431C141.608 36.2962 142.968 39.0032 144.576 41.5649C144.862 42.2333 144.782 42.8702 144.336 43.476C145.137 44.4315 145.937 45.387 146.737 46.3425C144.45 46.6101 144.291 47.2469 146.257 48.2536C147.377 47.3778 148.498 46.5016 149.619 45.6259C148.775 45.5294 147.975 45.2905 147.218 44.9093C147.858 44.1128 148.498 43.3169 149.138 42.5205C148.286 42.1922 147.486 41.7943 146.737 41.3261C148.258 40.1317 149.779 38.9373 151.299 37.7429C151.531 37.29 151.611 36.8122 151.54 36.3096C150.681 36.4458 149.88 36.2867 149.138 35.8318C150.816 34.2438 152.577 32.7307 154.421 31.2931C152.939 31.3839 151.499 31.7824 150.099 32.4875C149.939 32.2487 149.779 32.0098 149.619 31.7709C150.388 30.9004 151.189 30.0247 152.02 29.1432C151.768 28.8126 151.447 28.5737 151.059 28.4266C153.124 26.851 155.045 25.099 156.822 23.1713C156.037 22.9353 155.237 22.8559 154.421 22.9324C154.349 22.4298 154.429 21.952 154.661 21.4991C155.963 20.2846 157.163 19.0106 158.263 17.677C157.823 17.2815 157.503 16.8038 157.302 16.2438C157.648 15.1795 158.288 14.3036 159.223 13.6161C158.743 13.4569 158.263 13.2976 157.782 13.1383C158.867 12.3192 159.908 11.4433 160.904 10.5107C161.585 7.67915 162.546 4.97184 163.785 2.38879C164.438 6.56158 166.199 10.2244 169.068 13.3772C169.745 14.4046 170.146 15.5193 170.268 16.7215C169.378 16.6126 168.978 16.9311 169.068 17.677C170.516 19.0381 171.877 20.4715 173.15 21.9769C172.401 22.7561 171.441 23.1541 170.268 23.1713C172.349 24.8434 174.43 26.5156 176.511 28.1877C176.031 28.5857 175.551 28.9841 175.071 29.3821C176.26 30.0075 177.22 30.8832 177.952 32.0098C177.186 32.456 176.386 32.456 175.551 32.0098C174.927 31.2458 174.127 31.007 173.15 31.2931C173.723 31.8163 174.363 32.2143 175.071 32.4875C175.819 33.5023 176.78 34.2987 177.952 34.8763C178.443 33.1698 179.163 31.5774 180.113 30.0988C180.18 31.3137 180.5 32.4288 181.073 33.4431C181.931 32.8282 182.011 32.1115 181.314 31.2931C182.184 30.4275 183.064 29.5517 183.955 28.6655C184.918 26.0951 185.879 23.5473 186.836 21.0214C187.794 23.5473 188.754 26.0951 189.718 28.6655C190.608 29.5517 191.489 30.4275 192.359 31.2931C192.289 31.662 192.129 31.9806 191.879 32.2487C193.435 33.5114 193.756 35.0244 192.839 36.7874C195.193 36.4983 196.633 35.2241 197.161 32.9653C196.36 32.9653 195.56 32.9653 194.76 32.9653C194.655 32.4039 194.815 31.9262 195.24 31.532C196.927 30.4537 198.528 29.2593 200.042 27.9488C198.502 28.3994 196.901 28.5589 195.24 28.4266C196.041 27.6302 196.841 26.8342 197.641 26.0378C196.845 25.6914 196.605 25.1339 196.921 24.3657C198.911 23.1001 200.752 21.6668 202.443 20.0658C201.702 19.611 200.901 19.4519 200.042 19.5881C199.971 19.0855 200.051 18.6077 200.282 18.1548C201.571 16.9528 202.771 15.6788 203.884 14.3327C203.445 13.9372 203.125 13.4594 202.924 12.8995C203.195 11.9894 203.675 11.1932 204.364 10.5107C204.204 10.1922 204.044 9.87368 203.884 9.55516C204.836 8.84712 205.717 8.05084 206.525 7.16637C207.134 4.71232 207.934 2.32353 208.927 0C211.285 4.13676 213.446 8.35699 215.41 12.6606C215.287 13.2941 214.967 13.7719 214.449 14.0939C216.429 15.4957 217.71 17.3272 218.291 19.5881C217.475 19.5116 216.675 19.5909 215.89 19.827C217.971 21.5789 220.052 23.3304 222.133 25.0823C221.57 25.2825 221.09 25.6007 220.692 26.0378C221.881 26.6632 222.842 27.5389 223.573 28.6655C222.028 29.1065 220.587 28.7883 219.251 27.71C219.091 27.8691 218.931 28.0286 218.771 28.1877C220.513 29.536 222.274 30.8894 224.054 32.2487C223.213 32.8788 222.253 33.1177 221.172 32.9653C221.101 33.4679 221.18 33.9457 221.412 34.3986C222.891 35.5715 224.411 36.6866 225.975 37.7429C225.149 38.428 224.188 38.826 223.093 38.9373C223.984 40.4819 225.264 41.1187 226.935 40.8483C228.445 39.9033 229.726 38.7089 230.777 37.2651C229.976 36.9465 229.176 36.6283 228.376 36.3096C229.474 34.5792 230.754 32.9868 232.218 31.532C231.044 30.2445 231.204 29.0501 232.698 27.9488C232.478 27.7511 232.318 27.5122 232.218 27.2322C233.009 26.205 233.89 25.2495 234.859 24.3657C235.745 21.6348 236.706 18.9274 237.74 16.2438C239.434 20.728 241.515 25.0278 243.983 29.1432C244.283 30.0816 244.043 30.878 243.263 31.532C244.375 32.8779 245.576 34.1521 246.864 35.3541C247.096 35.807 247.176 36.2848 247.105 36.7874C246.246 36.6512 245.445 36.8103 244.703 37.2651C245.857 38.416 247.138 39.3716 248.545 40.1317Z" fill="#32302A"/>
</svg>
